<?xml version="1.0" encoding="UTF-8" standalone="no"?><!DOCTYPE svg PUBLIC "-//W3C//DTD SVG 1.1//EN" "http://www.w3.org/Graphics/SVG/1.1/DTD/svg11.dtd"><svg width="100%" height="100%" viewBox="0 0 71 66" version="1.1" xmlns="http://www.w3.org/2000/svg" xmlns:xlink="http://www.w3.org/1999/xlink" xml:space="preserve" style="fill-rule:evenodd;clip-rule:evenodd;stroke-linejoin:round;stroke-miterlimit:1.41421;"><rect id="Artboard8" x="0" y="0" width="71" height="66" style="fill:none;"/><path d="M36.629,13c0.3,0.003 0.599,0.011 0.899,0.026c0.716,0.036 1.43,0.111 2.139,0.224c1.745,0.278 3.452,0.79 5.062,1.518c2.013,0.911 3.872,2.159 5.481,3.675c1.575,1.484 2.909,3.223 3.931,5.132c0.927,1.729 1.595,3.595 1.977,5.52c0.42,2.119 0.494,4.306 0.221,6.449c-0.259,2.042 -0.838,4.041 -1.709,5.906c-1.02,2.182 -2.437,4.175 -4.161,5.858c-1.783,1.742 -3.89,3.147 -6.186,4.119c-1.248,0.528 -2.549,0.927 -3.878,1.191c-1.243,0.246 -2.509,0.374 -3.776,0.382c-1.311,0.008 -2.624,-0.111 -3.912,-0.358c-1.291,-0.248 -2.557,-0.624 -3.775,-1.122c-2.308,-0.944 -4.434,-2.324 -6.238,-4.045c-1.714,-1.634 -3.136,-3.57 -4.177,-5.697c-0.903,-1.845 -1.517,-3.828 -1.815,-5.86c-0.313,-2.138 -0.28,-4.328 0.101,-6.455c0.346,-1.936 0.981,-3.817 1.877,-5.566c1.043,-2.035 2.437,-3.887 4.101,-5.454c1.549,-1.46 3.331,-2.672 5.259,-3.573c1.675,-0.782 3.458,-1.329 5.284,-1.62c0.92,-0.147 1.848,-0.226 2.779,-0.247c0.172,-0.002 0.344,-0.003 0.516,-0.003Zm-0.239,3.027c-0.864,0.008 -1.726,0.076 -2.58,0.212c-1.479,0.236 -2.926,0.67 -4.291,1.287c-1.71,0.774 -3.287,1.833 -4.653,3.12c-1.363,1.284 -2.513,2.792 -3.387,4.449c-0.761,1.44 -1.311,2.991 -1.628,4.588c-0.364,1.835 -0.422,3.731 -0.174,5.585c0.231,1.728 0.732,3.418 1.479,4.993c0.863,1.817 2.051,3.476 3.49,4.881c1.514,1.479 3.302,2.672 5.251,3.497c1.057,0.448 2.16,0.787 3.287,1.01c1.055,0.209 2.13,0.317 3.206,0.324c1.114,0.007 2.229,-0.094 3.323,-0.304c1.094,-0.21 2.168,-0.529 3.199,-0.951c1.96,-0.801 3.764,-1.973 5.296,-3.434c1.479,-1.411 2.703,-3.088 3.591,-4.93c0.757,-1.569 1.268,-3.255 1.509,-4.98c0.265,-1.888 0.212,-3.821 -0.159,-5.691c-0.324,-1.631 -0.89,-3.213 -1.676,-4.679c-0.868,-1.621 -2.001,-3.098 -3.339,-4.358c-1.341,-1.263 -2.886,-2.308 -4.559,-3.077c-1.392,-0.64 -2.871,-1.089 -4.385,-1.33c-0.817,-0.13 -1.643,-0.198 -2.47,-0.211c-0.11,-0.001 -0.22,-0.001 -0.33,-0.001Zm6.942,9.621l-8.171,11.74l-5.766,-4.732c-0.622,-0.514 -1.543,-0.419 -2.054,0.201c-0.513,0.624 -0.422,1.545 0.203,2.055l6.988,5.737c0.261,0.216 0.59,0.331 0.926,0.331c0.065,0 0.133,-0.004 0.2,-0.015c0.403,-0.055 0.765,-0.277 0.999,-0.611l9.073,-13.038c0.46,-0.662 0.298,-1.571 -0.365,-2.033c-0.663,-0.464 -1.571,-0.298 -2.033,0.365Z"/></svg>