<?xml version="1.0" encoding="UTF-8" standalone="no"?><!DOCTYPE svg PUBLIC "-//W3C//DTD SVG 1.1//EN" "http://www.w3.org/Graphics/SVG/1.1/DTD/svg11.dtd"><svg width="100%" height="100%" viewBox="0 0 71 67" version="1.1" xmlns="http://www.w3.org/2000/svg" xmlns:xlink="http://www.w3.org/1999/xlink" xml:space="preserve" style="fill-rule:evenodd;clip-rule:evenodd;stroke-linejoin:round;stroke-miterlimit:1.41421;"><rect id="Artboard7" x="0" y="0.204" width="71" height="66" style="fill:none;"/><path d="M60.647,58.204l-47.799,0c-1.636,0 -3.099,-0.847 -3.914,-2.268c-0.815,-1.418 -0.809,-3.109 0.016,-4.519l23.9,-40.973c0.819,-1.403 2.276,-2.24 3.9,-2.24c1.624,0.002 3.083,0.839 3.9,2.24l23.901,40.973c0.824,1.41 0.83,3.101 0.012,4.519c-0.815,1.421 -2.277,2.268 -3.916,2.268Zm0.002,-4.035c0.23,0 0.355,-0.129 0.418,-0.24c0.06,-0.111 0.113,-0.283 -0.002,-0.479l-23.902,-40.973c-0.115,-0.195 -0.286,-0.236 -0.413,-0.238c-0.125,0 -0.299,0.041 -0.414,0.238l-23.899,40.973c-0.115,0.196 -0.065,0.368 -0.002,0.479c0.062,0.111 0.185,0.24 0.415,0.24l47.799,0Zm-25.16,-7.492c-0.363,0.381 -0.585,0.906 -0.585,1.433c0,0.544 0.222,1.067 0.585,1.432c0.383,0.382 0.908,0.585 1.432,0.585c0.525,0 1.049,-0.203 1.433,-0.585c0.363,-0.383 0.585,-0.908 0.585,-1.432c0,-0.527 -0.222,-1.031 -0.585,-1.433c-0.767,-0.746 -2.099,-0.746 -2.865,0Zm1.432,-24.791c-1.113,0 -2.017,0.902 -2.017,2.018l0,16.141c0,1.116 0.904,2.018 2.017,2.018c1.114,0 2.018,-0.902 2.018,-2.018l0,-16.141c0,-1.116 -0.904,-2.018 -2.018,-2.018Z"/></svg>