<?xml version="1.0" encoding="UTF-8" standalone="no"?><!DOCTYPE svg PUBLIC "-//W3C//DTD SVG 1.1//EN" "http://www.w3.org/Graphics/SVG/1.1/DTD/svg11.dtd"><svg width="100%" height="100%" viewBox="0 0 71 67" version="1.1" xmlns="http://www.w3.org/2000/svg" xmlns:xlink="http://www.w3.org/1999/xlink" xml:space="preserve" style="fill-rule:evenodd;clip-rule:evenodd;stroke-linejoin:round;stroke-miterlimit:1.41421;"><rect id="Artboard7" x="0" y="0.204" width="71" height="66" style="fill:none;"/><path d="M36.629,13.204c0.976,0.009 1.949,0.083 2.914,0.23c1.788,0.274 3.538,0.793 5.186,1.538c1.977,0.895 3.804,2.114 5.393,3.593c1.643,1.529 3.027,3.335 4.076,5.32c0.917,1.737 1.574,3.608 1.944,5.536c0.407,2.122 0.467,4.311 0.181,6.452c-0.272,2.039 -0.863,4.032 -1.745,5.89c-1.015,2.14 -2.414,4.095 -4.109,5.749c-1.784,1.742 -3.89,3.147 -6.186,4.119c-1.286,0.544 -2.629,0.952 -4,1.215c-1.204,0.231 -2.428,0.35 -3.654,0.358c-1.353,0.008 -2.707,-0.119 -4.034,-0.382c-1.249,-0.248 -2.474,-0.616 -3.653,-1.098c-2.308,-0.944 -4.433,-2.324 -6.238,-4.045c-1.714,-1.634 -3.136,-3.57 -4.177,-5.697c-0.903,-1.845 -1.517,-3.828 -1.815,-5.86c-0.313,-2.138 -0.28,-4.328 0.101,-6.455c0.324,-1.816 0.903,-3.585 1.714,-5.241c1.059,-2.163 2.511,-4.128 4.264,-5.779c1.549,-1.46 3.331,-2.672 5.259,-3.573c1.637,-0.765 3.378,-1.305 5.16,-1.6c0.665,-0.11 1.335,-0.187 2.008,-0.23c0.298,-0.019 0.596,-0.03 0.895,-0.037c0.172,-0.002 0.344,-0.003 0.516,-0.003Zm-0.239,3.027c-0.829,0.008 -1.655,0.07 -2.475,0.195c-1.516,0.232 -2.999,0.672 -4.396,1.304c-1.71,0.774 -3.287,1.833 -4.653,3.12c-1.363,1.284 -2.513,2.793 -3.387,4.449c-0.744,1.409 -1.287,2.924 -1.607,4.485c-0.383,1.867 -0.447,3.799 -0.195,5.688c0.231,1.728 0.732,3.418 1.479,4.993c0.878,1.848 2.091,3.532 3.563,4.953c1.523,1.469 3.319,2.652 5.273,3.465c1.029,0.428 2.099,0.753 3.192,0.97c1.091,0.216 2.203,0.324 3.316,0.324c1.077,0 2.155,-0.101 3.213,-0.304c1.128,-0.216 2.234,-0.549 3.295,-0.99c1.954,-0.813 3.75,-1.996 5.273,-3.465c1.472,-1.421 2.686,-3.105 3.563,-4.952c0.747,-1.576 1.248,-3.266 1.479,-4.994c0.248,-1.854 0.19,-3.75 -0.174,-5.585c-0.317,-1.597 -0.867,-3.148 -1.628,-4.588c-0.89,-1.686 -2.066,-3.22 -3.462,-4.519c-1.348,-1.255 -2.899,-2.29 -4.578,-3.05c-1.397,-0.632 -2.88,-1.072 -4.396,-1.304c-0.819,-0.125 -1.646,-0.187 -2.475,-0.195c-0.073,0 -0.147,0 -0.22,0Zm7.75,9.333c-0.603,-0.604 -1.579,-0.604 -2.182,0l-5.458,5.458l-5.458,-5.458c-0.603,-0.604 -1.579,-0.604 -2.182,0c-0.604,0.603 -0.604,1.579 0,2.182l5.458,5.458l-5.458,5.458c-0.604,0.603 -0.604,1.579 0,2.183c0.301,0.301 0.696,0.452 1.091,0.452c0.395,0 0.79,-0.151 1.091,-0.452l5.458,-5.458l5.458,5.458c0.301,0.301 0.696,0.452 1.091,0.452c0.395,0 0.79,-0.151 1.091,-0.452c0.604,-0.604 0.604,-1.58 0,-2.183l-5.457,-5.458l5.457,-5.458c0.602,-0.602 0.602,-1.579 0,-2.182Z"/></svg>