<?xml version="1.0" encoding="UTF-8" standalone="no"?><!DOCTYPE svg PUBLIC "-//W3C//DTD SVG 1.1//EN" "http://www.w3.org/Graphics/SVG/1.1/DTD/svg11.dtd"><svg width="100%" height="100%" viewBox="0 0 71 67" version="1.1" xmlns="http://www.w3.org/2000/svg" xmlns:xlink="http://www.w3.org/1999/xlink" xml:space="preserve" style="fill-rule:evenodd;clip-rule:evenodd;stroke-linejoin:round;stroke-miterlimit:1.41421;"><rect id="Artboard3" x="0" y="0.602" width="71" height="66" style="fill:none;"/><path d="M10.055,29.239c-1.109,0 -1.984,-0.7 -2.275,-1.75c-0.292,-0.992 0.175,-2.042 1.108,-2.567l24.912,-14.527c1.809,-1.109 4.143,-1.109 5.951,0l24.912,14.527c0.934,0.525 1.342,1.575 1.05,2.626c-0.291,0.991 -1.166,1.691 -2.217,1.691l-3.5,0c0,0 0.025,26.138 0.025,26.78c0,0.641 -0.525,1.166 -1.167,1.166l-44.374,0c-0.642,0 -1.15,-0.525 -1.167,-1.166c-0.005,-0.179 0.009,-26.78 0.009,-26.78l-3.267,0Zm39.439,6.943l-4.667,0c-0.642,0 -1.167,0.525 -1.167,1.167l0,17.503l7.001,0l0,-17.503c0,-0.642 -0.525,-1.167 -1.167,-1.167Zm14.002,-9.276l-24.912,-14.527c-1.108,-0.642 -2.508,-0.642 -3.617,0l-24.854,14.527l29.521,0c0.642,0 1.167,0.525 1.167,1.167c0,0.641 -0.525,1.166 -1.167,1.166l-23.978,0l0,25.613l25.67,0l0,-17.503c0,-1.925 1.576,-3.501 3.501,-3.501l4.667,0c1.926,0 3.501,1.576 3.501,3.501l0,17.444l4.667,0l0,-26.254c0,-0.058 0.059,-0.175 0.059,-0.233c-0.059,-0.058 -0.059,-0.117 -0.059,-0.233c0,-0.642 0.525,-1.167 1.167,-1.167l4.667,0Zm-35.005,6.942c-3.209,0 -5.834,2.626 -5.834,5.835c0,3.209 2.625,5.834 5.834,5.834c3.209,0 5.834,-2.625 5.834,-5.834c0,-3.209 -2.625,-5.835 -5.834,-5.835Zm0,9.335c-1.925,0 -3.5,-1.575 -3.5,-3.5c0,-1.926 1.575,-3.501 3.5,-3.501c1.925,0 3.501,1.575 3.501,3.501c0,1.925 -1.576,3.5 -3.501,3.5Zm18.028,-16.277c0.642,0 1.167,0.525 1.167,1.167c0,0.641 -0.525,1.166 -1.167,1.166l-1.634,0c-0.641,0 -1.167,-0.525 -1.167,-1.166c0,-0.642 0.526,-1.167 1.167,-1.167l1.634,0Z"/></svg>