<?xml version="1.0" encoding="UTF-8" standalone="no"?>
<!DOCTYPE svg PUBLIC "-//W3C//DTD SVG 1.1//EN" "http://www.w3.org/Graphics/SVG/1.1/DTD/svg11.dtd">
<svg width="100%" height="100%" viewBox="0 0 162 685" version="1.1" xmlns="http://www.w3.org/2000/svg" xmlns:xlink="http://www.w3.org/1999/xlink" xml:space="preserve" style="fill-rule:evenodd;clip-rule:evenodd;stroke-linejoin:round;stroke-miterlimit:1.41421;">
    <g transform="matrix(1,0,0,1,-1012,0)">
        <g id="Artboard2" transform="matrix(0.0739583,0,0,0.0859375,937.302,0)">
            <rect x="1010" y="0" width="960" height="768" style="fill:none;"/>
            <g transform="matrix(1.90141,0,0,1.63636,1131.31,73.4702)">
                <path d="M100.158,76.392C92.157,67.592 87.758,56.392 87.758,44.392C87.758,31.592 92.558,19.592 101.758,10.392C110.958,1.192 122.958,-3.608 135.758,-3.608C148.558,-3.608 160.958,1.192 169.758,10.392C176.558,17.192 183.358,27.592 188.158,39.592C192.958,27.592 199.758,17.192 206.558,10.392C224.958,-8.408 255.358,-8.408 274.158,10.392C292.558,28.392 292.958,57.592 275.758,76.392L347.758,76.392C369.758,76.392 387.758,94.392 387.758,116.392L387.758,148.392C387.758,158.792 381.358,167.592 371.758,171.192L371.758,340.392C371.758,362.392 353.758,380.392 331.758,380.392L63.758,380.392C42.958,380.392 19.758,363.192 19.758,340.392L19.758,171.192C10.558,167.592 3.758,158.792 3.758,148.392L3.758,116.392C3.758,94.393 21.757,76.393 43.758,76.392L100.158,76.392ZM364.958,156.792C364.958,156.392 365.358,156.392 365.358,156.392C368.558,155.592 371.758,152.792 371.758,148.392L371.758,116.392C371.758,103.192 360.958,92.392 347.758,92.392L43.758,92.392C30.558,92.392 19.758,103.192 19.758,116.392L19.758,148.392C19.758,152.792 23.358,156.392 27.758,156.392L179.758,156.392L179.758,120.392C179.758,115.992 183.358,112.392 187.758,112.392C192.158,112.392 195.758,115.992 195.758,120.392L195.758,156.392L275.758,156.392C280.158,156.392 283.758,159.992 283.758,164.392C283.758,168.792 280.158,172.392 275.758,172.392L195.758,172.392L195.758,364.792L331.758,364.792C344.958,364.792 355.758,353.992 355.758,340.792L355.758,164.792C355.758,160.393 359.357,156.793 363.758,156.792L364.958,156.792ZM179.758,364.392L179.758,172.392L35.758,172.392L35.758,340.392C35.758,353.592 50.958,364.392 63.758,364.392L179.758,364.392ZM323.758,156.392C328.158,156.393 331.758,159.993 331.758,164.392C331.758,168.792 328.158,172.392 323.758,172.392L311.758,172.392C307.358,172.392 303.758,168.792 303.758,164.392C303.758,159.993 307.357,156.393 311.758,156.392L323.758,156.392ZM250.158,76.792C250.958,75.992 251.358,75.592 252.158,75.192C255.758,72.792 259.758,69.992 262.958,66.792C275.358,54.392 275.358,33.992 262.958,21.592C250.558,9.192 230.158,9.192 217.758,21.592C207.758,31.592 196.558,55.592 196.958,72.792C196.958,73.992 196.558,75.592 195.758,76.792L250.158,76.792ZM180.158,75.592C179.358,74.392 178.958,73.192 178.958,71.592C179.358,55.192 168.158,31.192 158.158,21.192C152.158,15.192 144.158,11.992 135.758,11.992C127.358,11.992 119.358,15.192 113.358,21.192C100.958,33.592 100.958,53.992 113.358,66.392C116.158,69.592 119.758,72.392 123.758,74.392C124.958,75.192 125.758,75.592 126.158,75.592L180.158,75.592Z"/>
            </g>
        </g>
        <g id="Artboard21" transform="matrix(0.0739583,0,0,0.0859375,1028.3,0)">
            <rect x="1010" y="0" width="960" height="768" style="fill:none;"/>
            <g transform="matrix(1.82535,0,0,1.57091,1141.83,67.4851)">
                <path d="M360,48C382,48 400,66 400,88L400,312C400,334 382,352 360,352L40,352C18,352 0,334 0,312L0,88C0,66 18,48 40,48L360,48ZM360,336C371.6,336 381.6,327.6 384,316.4L330.8,257.2C327.6,254 328,248.8 331.2,246C334.4,242.8 339.6,243.2 342.4,246.4L384,292.8L384,138L216.4,213.2C211.2,215.2 205.6,216.4 200,216.4C194.4,216.4 188.8,215.6 183.6,213.2L16,138L16,296.4L98,210.8C100.8,207.6 106,207.2 109.2,210.4C112.4,213.2 112.8,218.4 109.6,221.6L16.8,318.4C19.6,328.4 28.8,336 40,336L360,336ZM305.6,229.6C307.2,231.2 309.2,232.4 311.6,232.4C313.6,232.4 315.6,231.6 316.8,230.4C320,227.6 320.4,222.4 317.2,219.2L310,210.8C307.2,207.6 302,207.2 298.8,210.4C295.6,213.2 295.2,218.4 298.4,221.6L305.6,229.6ZM384,120.8L210,198.8C203.6,201.6 196.4,201.6 190,198.8L16,120.8L16,88C16,74.8 26.8,64 40,64L360,64C373.2,64 384,74.8 384,88L384,120.8Z"/>
            </g>
        </g>
        <g id="Artboard3" transform="matrix(1,0,0,1,-119,89.602)">
            <rect x="1131" y="0" width="71" height="66" style="fill:none;"/>
            <g transform="matrix(0.146739,0,0,0.146739,1140.5,5.77241)">
                <path d="M328,9.2C350,9.2 368,27.2 368,49.2L368,241.2C368,263.2 350,281.2 328,281.2L288,281.2L288,350.8C288,354 286.4,356.8 283.6,358C282.4,358.4 281.2,358.8 280,358.8C278.4,358.8 276.8,358.4 275.2,357.2L184,286.4C179.6,282.8 174.4,281.2 169.2,281.2L40,281.2C18,281.2 0,263.2 0,241.2L0,49.2C0,27.2 18,9.2 40,9.2L328,9.2ZM328,265.2C341.2,265.2 352,254.4 352,241.2L352,49.2C352,36 341.2,25.2 328,25.2L40,25.2C26.8,25.2 16,36 16,49.2L16,241.2C16,254.4 26.8,265.2 40,265.2L169.2,265.2C178,265.2 186.4,268 193.6,273.6L272,334.4L272,241.2C272,236.8 275.6,233.2 280,233.2C284.4,233.2 288,236.8 288,241.2L288,265.2L328,265.2ZM208,185.2C212.4,185.2 216,188.8 216,193.2C216,197.6 212.4,201.2 208,201.2L84,201.2C79.6,201.2 76,197.6 76,193.2C76,188.8 79.6,185.2 84,185.2L208,185.2ZM240,137.2C244.4,137.2 248,140.8 248,145.2C248,149.6 244.4,153.2 240,153.2L84,153.2C79.6,153.2 76,149.6 76,145.2C76,140.8 79.6,137.2 84,137.2L240,137.2ZM288,137.2C292.4,137.2 296,140.8 296,145.2C296,149.6 292.4,153.2 288,153.2L276,153.2C271.6,153.2 268,149.6 268,145.2C268,140.8 271.6,137.2 276,137.2L288,137.2ZM248,89.2C252.4,89.2 256,92.8 256,97.2C256,101.6 252.4,105.2 248,105.2L84,105.2C79.6,105.2 76,101.6 76,97.2C76,92.8 79.6,89.2 84,89.2L248,89.2Z"/>
            </g>
        </g>
        <g id="Artboard31" transform="matrix(1,0,0,1,-28,89.602)">
            <rect x="1131" y="0" width="71" height="66" style="fill:none;"/>
            <g transform="matrix(1.12363,0,0,1.12363,386.639,-28.1182)">
                <path d="M671.411,50.511C670.425,50.511 669.646,49.888 669.386,48.953C669.127,48.071 669.542,47.136 670.373,46.669L692.544,33.74C694.154,32.753 696.23,32.753 697.84,33.74L720.011,46.669C720.842,47.136 721.205,48.071 720.946,49.005C720.686,49.888 719.907,50.511 718.973,50.511L715.857,50.511C715.857,50.511 715.88,73.773 715.88,74.344C715.88,74.915 715.412,75.382 714.841,75.382L675.349,75.382C674.778,75.382 674.326,74.915 674.311,74.344C674.306,74.185 674.319,50.511 674.319,50.511L671.411,50.511ZM706.511,56.69L702.357,56.69C701.786,56.69 701.319,57.157 701.319,57.728L701.319,73.305L707.55,73.305L707.55,57.728C707.55,57.157 707.082,56.69 706.511,56.69ZM718.973,48.434L696.802,35.505C695.815,34.934 694.569,34.934 693.582,35.505L671.463,48.434L697.736,48.434C698.307,48.434 698.775,48.901 698.775,49.473C698.775,50.044 698.307,50.511 697.736,50.511L676.396,50.511L676.396,73.305L699.242,73.305L699.242,57.728C699.242,56.015 700.644,54.613 702.357,54.613L706.511,54.613C708.225,54.613 709.627,56.015 709.627,57.728L709.627,73.253L713.78,73.253L713.78,49.888C713.78,49.836 713.832,49.732 713.832,49.68C713.78,49.628 713.78,49.576 713.78,49.473C713.78,48.901 714.248,48.434 714.819,48.434L718.973,48.434ZM687.819,54.613C684.963,54.613 682.627,56.95 682.627,59.805C682.627,62.661 684.963,64.998 687.819,64.998C690.675,64.998 693.011,62.661 693.011,59.805C693.011,56.95 690.675,54.613 687.819,54.613ZM687.819,62.921C686.105,62.921 684.704,61.519 684.704,59.805C684.704,58.092 686.105,56.69 687.819,56.69C689.532,56.69 690.934,58.092 690.934,59.805C690.934,61.519 689.532,62.921 687.819,62.921ZM703.863,48.434C704.434,48.434 704.902,48.901 704.902,49.473C704.902,50.044 704.434,50.511 703.863,50.511L702.409,50.511C701.838,50.511 701.371,50.044 701.371,49.473C701.371,48.901 701.838,48.434 702.409,48.434L703.863,48.434Z"/>
            </g>
        </g>
        <g id="Artboard4" transform="matrix(1,0,0,1,-240,174)">
            <rect x="1252" y="0" width="71" height="66" style="fill:none;"/>
            <g transform="matrix(0.137849,0,0,0.137849,1261.75,7.52381)">
                <path d="M288.428,136.455C262.428,104.055 235.228,70.055 236.028,8.055C236.028,4.855 234.428,2.455 231.628,0.855C228.828,-0.345 225.628,-0.345 223.228,1.255C179.628,32.455 140.828,100.855 152.028,184.055C136.828,175.255 127.628,160.455 117.228,144.855C114.028,139.655 110.828,134.455 107.228,129.655C105.628,127.655 103.228,126.055 100.428,126.455C97.628,126.455 95.228,128.055 94.028,130.055C73.228,162.455 52.028,201.655 52.028,244.055C52.028,327.655 110.828,388.055 192.028,388.055C274.028,388.055 336.028,326.055 336.028,244.055C336.028,195.655 312.028,165.655 288.428,136.455ZM192.028,372.055C120.028,372.055 68.028,318.055 68.028,244.055C68.028,210.055 83.628,177.255 101.228,148.855C102.028,150.455 103.228,151.655 104.028,153.255C114.828,170.055 125.628,186.855 144.028,197.655C149.228,200.855 155.628,200.855 160.828,197.655C166.028,194.455 168.828,188.455 168.028,182.055C158.428,113.655 186.028,56.055 220.428,24.855C224.428,82.455 251.628,116.455 276.028,146.855C299.628,176.055 320.028,201.255 320.028,244.055C320.028,316.855 264.828,372.055 192.028,372.055ZM267.228,318.055C264.028,315.255 258.828,315.655 256.028,318.855C254.028,321.255 251.228,323.655 248.428,326.055C245.228,328.855 244.828,334.055 247.628,337.255C249.228,339.255 251.628,340.055 253.628,340.055C255.628,340.055 257.228,339.255 258.828,338.055C262.028,335.255 265.228,332.455 268.028,329.255C270.828,326.055 270.428,320.855 267.228,318.055ZM300.028,220.055C295.628,220.055 292.028,223.655 292.028,228.055C292.028,254.455 285.228,278.455 271.228,299.655C268.828,303.255 270.028,308.455 273.628,310.855C274.828,311.655 276.428,312.055 278.028,312.055C280.828,312.055 283.228,310.855 284.828,308.455C300.028,284.455 308.028,257.655 308.028,228.055C308.028,223.655 304.428,220.055 300.028,220.055Z"/>
            </g>
        </g>
        <g id="Artboard41" transform="matrix(1,0,0,1,-149,174)">
            <rect x="1252" y="0" width="71" height="66" style="fill:none;"/>
            <g transform="matrix(0.145221,0,0,0.145221,1260.87,6.38783)">
                <path d="M351.569,306.4L322.769,258.4C317.569,250 314.369,241.2 313.569,231.6L295.969,111.6C295.969,111.2 295.969,111.2 295.969,110.8C290.369,87.2 273.169,68 250.769,58.8L246.369,56.8C245.169,56 243.569,55.6 242.369,55.2C241.569,54.8 241.169,54.8 240.369,54.4C239.969,54 239.569,54 239.569,54L219.169,14.8C215.169,5.6 205.569,0 194.769,0L190.769,0C180.369,0 171.169,5.6 165.969,15.2L145.169,54L144.769,54.4C142.369,55.2 139.569,56 137.969,56.8L133.169,58.4C110.769,67.6 93.569,86.8 87.969,110.4C87.969,110.8 87.969,110.8 87.969,111.2L70.369,231.2C68.769,240.4 65.569,249.6 61.169,258L32.369,306C28.769,312.4 28.369,319.6 31.969,326C35.569,332.4 41.969,336 49.569,336L145.569,336C145.569,336.8 145.169,337.2 145.169,338C145.169,363.2 165.969,384 191.169,384C216.369,384 237.169,363.2 237.169,338C237.169,337.2 237.169,336.8 236.769,336L335.169,336C342.369,336 348.769,332 352.369,326C355.569,320 355.169,312.4 351.569,306.4ZM220.769,338.4C220.769,354.8 207.169,368.4 190.769,368.4C174.369,368.4 160.769,354.8 160.769,338.4C160.769,337.6 160.769,337.2 160.369,336.4L220.769,336.4C220.769,337.2 220.769,337.6 220.769,338.4ZM337.969,318.4C337.569,318.8 336.769,320.4 334.769,320.4L49.169,320.4C46.769,320.4 45.969,319.2 45.569,318.4C45.169,317.6 44.769,316.4 45.569,314.4L74.369,266.4C80.369,256 83.969,245.2 85.569,234L103.169,114.4C107.969,96 121.169,80.8 138.369,74L143.169,72.4C145.169,71.6 147.169,70.8 149.569,70L149.969,70C153.569,68.4 156.769,66 158.769,62.8C158.769,62.8 158.769,62.4 159.169,62.4L179.969,23.2C182.369,18.8 185.969,16.8 190.369,16.8L194.369,16.8C198.769,16.8 202.769,19.2 204.369,22.4C204.369,22.4 204.369,22.8 204.769,22.8L225.569,62.4C225.569,62.4 225.569,62.8 225.969,62.8C227.969,66 230.769,68.8 234.769,70C235.969,70.4 236.769,70.8 237.969,71.2C238.769,71.6 239.169,71.6 239.969,72C239.969,72 240.369,72 240.369,72.4L245.169,74.4C262.769,81.6 275.969,96.4 280.769,114.8L298.369,234C299.569,245.2 303.569,256.4 309.969,266.8L338.769,314.8C338.769,316 338.369,317.6 337.969,318.4Z" style="fill-rule:nonzero;"/>
            </g>
        </g>
        <g id="Artboard5" transform="matrix(1,0,0,1,-361,262)">
            <rect x="1373" y="0" width="71" height="66" style="fill:none;"/>
            <g transform="matrix(1.04567,0,0,1.04567,841.234,-54.9674)">
                <path d="M564.773,109.188L522.073,109.188C521.123,109.188 520.273,108.788 519.723,108.038C519.173,107.288 518.973,106.338 519.223,105.388L521.523,97.738C522.823,93.138 526.473,89.588 531.073,88.388L531.673,88.188C531.773,88.138 531.873,88.138 531.973,88.138L532.023,88.138C532.873,87.988 533.773,88.288 534.373,88.938C536.223,91.088 539.323,93.638 543.423,93.638C546.673,93.638 549.823,91.988 552.473,88.838L552.523,88.788C553.173,88.088 554.073,87.838 554.923,88.038C555.023,88.088 555.123,88.088 555.173,88.138L555.823,88.338C560.373,89.538 564.023,93.088 565.323,97.688L567.623,105.288C567.923,106.238 567.773,107.188 567.173,107.988C566.623,108.738 565.723,109.188 564.773,109.188ZM564.773,107.138C565.073,107.138 565.373,106.988 565.573,106.738C565.673,106.588 565.823,106.288 565.773,105.838L563.473,98.238C562.373,94.338 559.223,91.288 555.323,90.288L554.673,90.088C554.573,90.088 554.523,90.038 554.473,90.038C554.223,90.038 554.073,90.138 553.973,90.238C550.923,93.738 547.223,95.638 543.423,95.638C539.673,95.638 535.923,93.738 532.873,90.238C532.773,90.138 532.573,90.038 532.373,90.088C532.323,90.138 532.223,90.138 532.123,90.138L531.623,90.288C527.623,91.288 524.523,94.338 523.423,98.238L521.123,105.838C521.073,106.138 521.123,106.488 521.323,106.738C521.473,106.988 521.773,107.138 522.073,107.138L564.773,107.138ZM543.423,89.188C550.073,89.188 555.923,80.988 555.923,71.688C555.923,64.788 550.323,59.188 543.423,59.188C536.523,59.188 530.923,64.788 530.923,71.688C530.923,80.988 536.773,89.188 543.423,89.188ZM532.951,71.687C532.911,71.01 532.918,70.794 533.123,69.688C534.023,64.838 538.323,61.188 543.423,61.188C548.323,61.188 552.423,64.588 553.573,69.138C553.84,70.193 553.917,71.447 553.917,71.447L553.906,71.447C553.915,71.527 553.923,71.607 553.923,71.688C553.923,79.938 549.023,87.188 543.423,87.188C537.823,87.188 532.923,79.938 532.923,71.688L532.951,71.687Z"/>
            </g>
        </g>
        <g id="Artboard51" transform="matrix(1,0,0,1,-270,262)">
            <rect x="1373" y="0" width="71" height="66" style="fill:none;"/>
            <g transform="matrix(1,0,0,1,189.701,-259.136)">
                <path d="M1220.18,307.598C1220.3,307.609 1220.41,307.632 1220.53,307.677C1220.82,307.794 1221.06,308.035 1221.17,308.332C1221.21,308.444 1221.24,308.559 1221.25,308.678C1221.33,311.313 1221.28,313.951 1221.3,316.587C1221.3,316.787 1221.25,316.979 1221.16,317.155C1221.1,317.258 1221.03,317.353 1220.94,317.434C1220.63,317.722 1220.18,317.819 1219.78,317.684C1219.65,317.639 1219.53,317.571 1219.42,317.483C1219.32,317.395 1219.22,317.288 1219.15,317.168C1219.07,317.012 1219.02,316.841 1219,316.662C1218.92,314.027 1218.97,311.389 1218.95,308.753C1218.95,308.633 1218.96,308.517 1219,308.402C1219.1,308.079 1219.35,307.812 1219.66,307.682C1219.79,307.629 1219.92,307.603 1220.06,307.595C1220.12,307.595 1220.12,307.595 1220.18,307.598ZM1207.67,310.926C1207.84,310.932 1208,310.966 1208.15,311.038C1208.58,311.243 1208.84,311.705 1208.8,312.178C1208.78,312.343 1208.73,312.499 1208.65,312.645C1207.9,313.909 1207.13,315.16 1206.33,316.397C1206.24,316.533 1206.12,316.649 1205.98,316.736C1205.85,316.815 1205.71,316.869 1205.56,316.893C1205.42,316.915 1205.29,316.912 1205.15,316.886C1204.73,316.801 1204.38,316.477 1204.27,316.062C1204.23,315.943 1204.22,315.819 1204.23,315.696C1204.24,315.516 1204.29,315.346 1204.38,315.188C1205.13,313.924 1205.9,312.673 1206.69,311.436C1206.74,311.369 1206.79,311.305 1206.85,311.248C1207.03,311.074 1207.26,310.97 1207.51,310.934C1207.56,310.929 1207.62,310.926 1207.67,310.926ZM1233.14,309.78C1233.39,309.794 1233.64,309.881 1233.83,310.045C1233.89,310.096 1233.95,310.153 1234,310.214C1234.89,311.381 1235.77,312.563 1236.62,313.759C1236.72,313.915 1236.79,314.088 1236.81,314.274C1236.83,314.392 1236.82,314.513 1236.8,314.63C1236.72,315.052 1236.4,315.401 1235.98,315.517C1235.86,315.553 1235.72,315.567 1235.59,315.557C1235.44,315.547 1235.3,315.509 1235.17,315.445C1235.01,315.37 1234.88,315.259 1234.77,315.125C1233.88,313.959 1233,312.777 1232.15,311.581C1232.06,311.447 1232,311.302 1231.97,311.144C1231.9,310.776 1232.02,310.388 1232.28,310.122C1232.35,310.046 1232.44,309.981 1232.53,309.929C1232.67,309.85 1232.82,309.804 1232.98,309.785C1233.04,309.781 1233.09,309.779 1233.14,309.78ZM1220.1,274.542C1220.34,274.555 1220.57,274.649 1220.75,274.812C1220.84,274.887 1220.91,274.974 1220.97,275.067L1226.88,284.717C1230.54,285.578 1234.2,286.44 1237.87,287.3C1237.89,287.307 1237.92,287.313 1237.95,287.321C1237.99,287.331 1238.02,287.342 1238.05,287.354C1238.23,287.433 1238.38,287.558 1238.5,287.721C1238.75,288.089 1238.77,288.64 1238.47,288.988L1238.46,289.003L1231.09,297.6C1231.39,301.352 1231.68,305.104 1231.98,308.856C1231.98,308.888 1231.99,308.92 1231.99,308.952C1231.99,309.095 1231.97,309.237 1231.91,309.37C1231.84,309.56 1231.71,309.716 1231.54,309.834C1231.44,309.903 1231.34,309.961 1231.22,309.997C1231.12,310.03 1231.01,310.045 1230.9,310.045C1230.76,310.045 1230.63,310.009 1230.5,309.956L1230.47,309.941L1220.06,305.585C1216.6,307.037 1213.15,308.489 1209.69,309.941C1209.66,309.953 1209.63,309.966 1209.61,309.977C1209.38,310.057 1209.13,310.051 1208.9,309.964C1208.82,309.932 1208.74,309.89 1208.67,309.843L1208.63,309.817C1208.57,309.763 1208.51,309.705 1208.46,309.639C1208.28,309.419 1208.18,309.139 1208.22,308.857L1209.1,297.6C1206.65,294.735 1204.2,291.869 1201.74,289.005C1201.72,288.98 1201.7,288.957 1201.68,288.933C1201.66,288.904 1201.64,288.874 1201.62,288.844C1201.57,288.773 1201.54,288.698 1201.51,288.619C1201.41,288.282 1201.49,287.898 1201.71,287.628C1201.86,287.449 1202.06,287.331 1202.28,287.265L1213.28,284.679L1219.14,275.067L1219.18,275.01C1219.24,274.939 1219.3,274.872 1219.37,274.812C1219.55,274.649 1219.78,274.555 1220.02,274.542C1220.06,274.541 1220.06,274.541 1220.1,274.542ZM1214.93,286.228C1214.77,286.464 1214.52,286.65 1214.24,286.716L1204.54,288.983C1206.68,291.508 1208.82,294.033 1210.96,296.557C1210.98,296.577 1211,296.597 1211.01,296.617C1211.04,296.654 1211.04,296.654 1211.07,296.693C1211.1,296.743 1211.13,296.794 1211.15,296.849C1211.21,297.005 1211.23,297.172 1211.23,297.34L1211.23,297.367L1210.45,307.29L1219.64,303.459C1219.73,303.426 1219.83,303.39 1219.93,303.372C1220.11,303.339 1220.29,303.381 1220.46,303.45L1220.49,303.465L1229.67,307.29L1228.89,297.367C1228.88,297.113 1228.95,296.871 1229.09,296.656L1229.11,296.617L1229.14,296.572L1235.65,288.982C1232.41,288.224 1229.17,287.445 1225.91,286.706C1225.86,286.692 1225.86,286.692 1225.81,286.674C1225.75,286.647 1225.68,286.617 1225.63,286.578C1225.49,286.488 1225.39,286.367 1225.3,286.231L1220.1,277.719C1218.38,280.555 1216.66,283.392 1214.93,286.228ZM1206.17,297.529C1206.34,297.542 1206.5,297.58 1206.65,297.658C1206.74,297.707 1206.82,297.767 1206.9,297.838C1207.17,298.096 1207.31,298.483 1207.25,298.857C1207.23,298.98 1207.19,299.1 1207.13,299.21C1207.04,299.398 1206.89,299.545 1206.71,299.659C1203.84,301.306 1200.89,302.798 1197.97,304.367C1197.92,304.395 1197.86,304.421 1197.8,304.442C1197.64,304.496 1197.48,304.515 1197.31,304.498C1197.19,304.486 1197.06,304.453 1196.95,304.401C1196.86,304.358 1196.77,304.302 1196.69,304.235C1196.37,303.965 1196.21,303.526 1196.3,303.114C1196.33,302.972 1196.39,302.836 1196.47,302.715C1196.57,302.575 1196.69,302.464 1196.83,302.373C1199.7,300.726 1202.65,299.234 1205.57,297.665C1205.64,297.628 1205.72,297.595 1205.8,297.572C1205.88,297.549 1205.96,297.537 1206.04,297.53C1206.11,297.528 1206.11,297.528 1206.17,297.529ZM1234.05,297.6C1234.11,297.604 1234.18,297.609 1234.24,297.622C1234.32,297.639 1234.4,297.667 1234.48,297.7C1237.46,299.14 1240.36,300.741 1243.3,302.262C1243.45,302.345 1243.58,302.449 1243.68,302.585C1243.77,302.703 1243.84,302.838 1243.88,302.98C1243.91,303.103 1243.92,303.231 1243.92,303.357C1243.89,303.763 1243.64,304.134 1243.28,304.314C1243.18,304.361 1243.08,304.395 1242.98,304.414C1242.81,304.445 1242.64,304.438 1242.48,304.395C1242.41,304.379 1242.36,304.357 1242.3,304.332C1239.32,302.893 1236.42,301.291 1233.48,299.77C1233.29,299.666 1233.13,299.527 1233.02,299.342C1232.82,299.012 1232.81,298.595 1232.97,298.249C1233.02,298.153 1233.08,298.065 1233.15,297.986C1233.23,297.891 1233.33,297.81 1233.44,297.748C1233.59,297.663 1233.75,297.619 1233.92,297.602C1233.99,297.599 1233.99,297.599 1234.05,297.6ZM1212.89,292.883C1212.98,292.888 1213.06,292.898 1213.15,292.919C1213.35,292.973 1213.53,293.085 1213.67,293.24C1213.76,293.346 1213.84,293.46 1213.92,293.57C1214,293.659 1214.07,293.749 1214.14,293.841C1214.21,293.935 1214.28,294.03 1214.35,294.126C1214.54,294.413 1214.72,294.711 1214.87,295.022C1215.2,295.682 1215.42,296.393 1215.53,297.121C1215.6,297.599 1215.62,298.082 1215.59,298.564C1215.54,299.417 1215.46,300.267 1215.39,301.118C1215.37,301.269 1215.33,301.413 1215.25,301.545C1215.06,301.873 1214.7,302.086 1214.32,302.089C1214.26,302.09 1214.21,302.09 1214.15,302.081C1214.04,302.066 1213.94,302.034 1213.84,301.986C1213.73,301.933 1213.63,301.86 1213.54,301.773C1213.45,301.674 1213.37,301.557 1213.32,301.429C1213.25,301.279 1213.23,301.121 1213.23,300.959C1213.29,300.061 1213.39,299.167 1213.44,298.268C1213.45,297.931 1213.44,297.595 1213.38,297.262C1213.29,296.66 1213.07,296.08 1212.75,295.56C1212.64,295.371 1212.51,295.19 1212.37,295.019C1212.26,294.881 1212.14,294.749 1212.02,294.613C1211.99,294.569 1211.99,294.569 1211.96,294.524C1211.88,294.386 1211.83,294.239 1211.81,294.08C1211.76,293.657 1211.97,293.223 1212.34,293.015C1212.48,292.938 1212.63,292.899 1212.79,292.885C1212.84,292.883 1212.84,292.883 1212.89,292.883ZM1210.63,290.286C1210.88,290.299 1211.11,290.377 1211.3,290.526C1211.36,290.57 1211.41,290.619 1211.46,290.672L1212.25,291.62C1212.31,291.707 1212.37,291.799 1212.41,291.9C1212.51,292.14 1212.52,292.413 1212.43,292.656C1212.36,292.841 1212.23,292.987 1212.07,293.102C1211.94,293.198 1211.8,293.281 1211.63,293.322C1211.36,293.394 1211.05,293.339 1210.81,293.182C1210.72,293.129 1210.65,293.066 1210.59,292.994C1210.31,292.662 1210.04,292.332 1209.76,291.999C1209.68,291.895 1209.63,291.785 1209.59,291.66C1209.47,291.222 1209.65,290.716 1210.03,290.458C1210.17,290.365 1210.32,290.315 1210.48,290.293C1210.53,290.288 1210.58,290.286 1210.63,290.286ZM1194.61,285.829C1194.65,285.831 1194.69,285.834 1194.74,285.839C1196.19,286.067 1197.64,286.322 1199.09,286.605C1199.28,286.649 1199.45,286.731 1199.6,286.857C1199.69,286.934 1199.76,287.024 1199.83,287.124C1200.05,287.492 1200.05,287.97 1199.82,288.337C1199.75,288.449 1199.66,288.549 1199.56,288.631C1199.44,288.722 1199.31,288.791 1199.17,288.832C1199.01,288.878 1198.85,288.887 1198.69,288.868C1197.24,288.641 1195.79,288.386 1194.34,288.103C1194.15,288.059 1193.98,287.977 1193.83,287.851C1193.74,287.774 1193.67,287.684 1193.61,287.584C1193.41,287.268 1193.38,286.868 1193.53,286.527C1193.57,286.419 1193.63,286.318 1193.71,286.229C1193.81,286.117 1193.92,286.025 1194.06,285.957C1194.2,285.882 1194.36,285.843 1194.52,285.831C1194.56,285.829 1194.56,285.829 1194.61,285.829ZM1245.58,285.831C1245.77,285.845 1245.95,285.899 1246.12,286.001C1246.22,286.063 1246.31,286.14 1246.38,286.229C1246.63,286.51 1246.72,286.901 1246.63,287.26C1246.6,287.374 1246.55,287.484 1246.49,287.584C1246.41,287.709 1246.31,287.818 1246.19,287.905C1246.06,288.002 1245.91,288.066 1245.76,288.103C1244.31,288.386 1242.86,288.641 1241.41,288.868C1241.24,288.887 1241.08,288.878 1240.93,288.832C1240.79,288.791 1240.65,288.722 1240.54,288.631C1240.43,288.549 1240.34,288.449 1240.27,288.337C1240.21,288.238 1240.16,288.128 1240.14,288.014C1240.03,287.595 1240.17,287.14 1240.5,286.857C1240.65,286.731 1240.82,286.649 1241.01,286.605C1242.45,286.322 1243.9,286.067 1245.36,285.839C1245.4,285.834 1245.44,285.831 1245.49,285.829C1245.53,285.829 1245.53,285.829 1245.58,285.831ZM1205.03,273.692C1205.11,273.697 1205.18,273.706 1205.26,273.724C1205.47,273.774 1205.65,273.882 1205.8,274.029C1208.08,276.428 1210.24,278.939 1212.45,281.394C1212.58,281.541 1212.67,281.707 1212.72,281.896C1212.74,282.008 1212.75,282.123 1212.75,282.238C1212.72,282.664 1212.45,283.049 1212.06,283.219C1211.93,283.273 1211.8,283.304 1211.67,283.312C1211.52,283.322 1211.36,283.3 1211.22,283.25C1211.05,283.192 1210.91,283.097 1210.78,282.977C1208.51,280.577 1206.35,278.067 1204.13,275.612C1204.02,275.48 1203.93,275.333 1203.88,275.165C1203.85,275.055 1203.84,274.94 1203.84,274.826C1203.84,274.439 1204.05,274.072 1204.38,273.867C1204.53,273.774 1204.69,273.722 1204.86,273.698C1204.92,273.693 1204.97,273.691 1205.03,273.692ZM1235.38,273.946C1235.55,273.956 1235.72,273.995 1235.87,274.074C1236.22,274.258 1236.46,274.624 1236.49,275.023C1236.5,275.136 1236.49,275.25 1236.46,275.36C1236.41,275.546 1236.33,275.71 1236.2,275.856C1233.95,278.282 1231.59,280.597 1229.28,282.967C1229.16,283.086 1229.02,283.182 1228.86,283.242C1228.72,283.295 1228.57,283.319 1228.42,283.314C1228.29,283.309 1228.16,283.282 1228.03,283.233C1227.93,283.191 1227.83,283.134 1227.74,283.063C1227.4,282.789 1227.24,282.329 1227.34,281.9C1227.38,281.714 1227.48,281.55 1227.6,281.404C1229.85,278.978 1232.21,276.663 1234.52,274.293C1234.57,274.24 1234.63,274.191 1234.69,274.148C1234.85,274.039 1235.02,273.978 1235.21,273.952C1235.27,273.947 1235.32,273.945 1235.38,273.946ZM1220.14,266.661C1220.25,266.669 1220.36,266.689 1220.47,266.728C1220.78,266.838 1221.02,267.077 1221.15,267.378C1221.19,267.496 1221.22,267.619 1221.23,267.746C1221.28,269.056 1221.3,270.368 1221.3,271.68C1221.3,271.849 1221.26,272.014 1221.18,272.166C1221.12,272.305 1221.02,272.429 1220.9,272.53C1220.8,272.621 1220.67,272.693 1220.54,272.741C1220.44,272.779 1220.33,272.802 1220.22,272.808C1219.79,272.832 1219.38,272.609 1219.16,272.241C1219.07,272.082 1219.02,271.906 1219,271.723C1218.95,270.412 1218.93,269.101 1218.93,267.789C1218.93,267.662 1218.95,267.538 1219,267.419C1219.11,267.1 1219.37,266.843 1219.69,266.728C1219.81,266.685 1219.93,266.664 1220.06,266.659C1220.1,266.659 1220.1,266.659 1220.14,266.661Z"/>
            </g>
        </g>
        <g id="Artboard6" transform="matrix(1,0,0,1,-482,351.602)">
            <rect x="1494" y="0" width="71" height="66" style="fill:none;"/>
            <g transform="matrix(8.00485e-18,0.130729,-0.130729,8.00485e-18,1557.35,6.61389)">
                <path d="M149.4,138.8C153.8,138.8 157.4,142.4 157.4,146.8C157.4,151.2 153.8,154.8 149.4,154.8L77.4,154.8C64.2,154.8 53.4,165.6 53.4,178.8L53.4,370.8C53.4,384 64.2,394.8 77.4,394.8L333.4,394.8C346.6,394.8 357.4,384 357.4,370.8L357.4,178.8C357.4,165.6 346.6,154.8 333.4,154.8L269.4,154.8C265,154.8 261.4,151.2 261.4,146.8C261.4,142.4 265,138.8 269.4,138.8L333.4,138.8C355.4,138.8 373.4,156.8 373.4,178.8L373.4,370.8C373.4,392.8 355.4,410.8 333.4,410.8L77.4,410.8C55.4,410.8 37.4,392.8 37.4,370.8L37.4,178.8C37.4,156.8 55.4,138.8 77.4,138.8L149.4,138.8ZM205.4,246.8C201,246.8 197.4,250.4 197.4,254.8L197.4,266.8C197.4,271.2 201,274.8 205.4,274.8C209.8,274.8 213.4,271.2 213.4,266.8L213.4,254.8C213.4,250.4 209.8,246.8 205.4,246.8ZM140.2,84.4L197.4,27.2L197.4,218.8C197.4,223.2 201,226.8 205.4,226.8C209.8,226.8 213.4,223.2 213.4,218.8L213.4,27.2L270.6,84.4C272.2,86 274.2,86.8 276.2,86.8C278.2,86.8 280.2,86 281.8,84.4C285,81.2 285,76.4 281.8,73.2L211,2.4C207.8,-0.8 203,-0.8 199.8,2.4L129,73.2C125.8,76.4 125.8,81.2 129,84.4C132.2,87.6 137,87.6 140.2,84.4Z"/>
            </g>
        </g>
        <g id="Artboard61" transform="matrix(1,0,0,1,-391,351.602)">
            <rect x="1494" y="0" width="71" height="66" style="fill:none;"/>
            <g transform="matrix(0.227035,0,0,0.227035,1351.69,-93.8827)">
                <path d="M771.313,669.47C765.053,671.974 758.168,669.47 755.352,663.524L741.581,638.174L711.224,631.914C705.903,629.724 702.461,624.403 703.087,618.77L707.155,589.664L687.438,568.382C683.057,563.062 683.37,555.551 687.751,551.169L707.468,530.513L704.025,501.72C703.4,494.835 707.781,488.889 714.353,487.637L742.833,482.629L756.917,457.279C758.482,454.462 760.985,452.272 764.115,451.333C767.245,450.394 770.687,450.707 773.504,452.272L804.167,467.457L888.281,585.875L893.057,620.335C893.351,625.63 890.88,630.373 886.682,632.742L866.124,637.306L854.562,639.425L840.479,664.776C838.288,668.844 833.906,671.035 829.525,671.035C827.647,671.035 825.769,670.722 823.892,669.783L798.228,657.265L796.902,657.833L796.875,657.812L784.625,663.312L783.328,664.048L771.626,669.47L771.313,669.47ZM841.964,601.676C831.045,613.457 815.459,620.859 798.228,620.859C765.407,620.859 738.554,594.005 738.554,561.184C738.554,536.916 753.985,514.91 774.905,505.611C774.905,505.611 770.11,499.062 775.683,491.49L791.201,475.232L767.871,463.851L753.787,489.202C751.909,492.644 748.467,494.835 745.024,495.461L716.544,500.468C716.231,500.781 716.231,501.094 716.231,501.094L719.674,529.574C720.3,533.33 719.048,537.086 716.231,539.902L696.514,560.558L715.918,581.84C718.422,584.343 719.674,588.412 719.048,592.168L714.979,620.96L743.772,626.281C747.528,626.594 750.657,629.098 752.535,632.227L766.306,658.203L766.619,658.203L792.595,645.998C796.038,644.12 800.419,644.12 803.862,645.998L829.525,658.516L843.608,633.166C845.486,629.724 848.929,627.533 852.372,626.907L880.538,622.212L877.664,598.167L870.582,601.347L869.311,602.067L857.848,607.379L857.541,607.379C851.451,609.814 844.759,607.413 841.964,601.676ZM799.969,484.238L784.267,500.687L803.276,521.535C805.728,523.988 806.955,527.973 806.341,531.652L802.356,559.858L830.562,565.07C834.241,565.377 837.307,567.83 839.146,570.895L852.636,596.342L852.942,596.342L873.119,586.861C859.777,566.646 816.544,506.01 799.969,484.238Z"/>
            </g>
        </g>
        <g id="Artboard7" transform="matrix(1,0,0,1,-603,441.204)">
            <rect x="1615" y="0" width="71" height="66" style="fill:none;"/>
            <g transform="matrix(0.550353,0,0,0.550353,1160.07,-223.252)">
                <path d="M893.162,429.274C894.935,429.291 896.703,429.424 898.456,429.692C901.706,430.189 904.884,431.132 907.879,432.487C911.472,434.112 914.792,436.327 917.678,439.014C920.665,441.793 923.18,445.074 925.085,448.682C926.751,451.836 927.945,455.237 928.617,458.74C929.357,462.596 929.467,466.572 928.946,470.463C928.451,474.168 927.378,477.79 925.776,481.166C923.931,485.054 921.389,488.606 918.309,491.612C915.068,494.776 911.241,497.329 907.069,499.095C904.733,500.084 902.292,500.826 899.801,501.303C897.614,501.723 895.389,501.939 893.162,501.953C890.704,501.969 888.243,501.738 885.832,501.26C883.562,500.81 881.337,500.141 879.195,499.265C875,497.55 871.139,495.041 867.859,491.915C864.746,488.946 862.162,485.427 860.271,481.563C858.63,478.212 857.513,474.609 856.972,470.916C856.403,467.031 856.463,463.052 857.155,459.186C857.745,455.887 858.797,452.674 860.271,449.664C862.194,445.734 864.833,442.163 868.017,439.163C870.833,436.51 874.069,434.309 877.574,432.671C880.548,431.282 883.711,430.301 886.949,429.764C888.157,429.563 889.375,429.424 890.597,429.347C891.139,429.312 891.682,429.292 892.225,429.28C892.537,429.275 892.849,429.273 893.162,429.274ZM892.728,434.774C891.222,434.788 889.72,434.901 888.231,435.129C885.476,435.55 882.782,436.349 880.243,437.498C877.137,438.903 874.27,440.828 871.789,443.166C869.312,445.5 867.223,448.24 865.634,451.25C864.282,453.811 863.295,456.562 862.714,459.399C862.019,462.792 861.901,466.303 862.36,469.735C862.78,472.875 863.689,475.946 865.048,478.808C866.642,482.165 868.847,485.225 871.521,487.806C874.288,490.476 877.552,492.625 881.103,494.103C882.971,494.88 884.917,495.471 886.901,495.865C888.884,496.258 890.906,496.454 892.927,496.454C894.885,496.454 896.842,496.271 898.765,495.902C900.815,495.509 902.825,494.905 904.752,494.103C908.303,492.625 911.567,490.476 914.334,487.806C917.008,485.225 919.214,482.166 920.807,478.808C922.165,475.946 923.075,472.875 923.495,469.735C923.945,466.366 923.84,462.921 923.179,459.588C922.603,456.684 921.604,453.867 920.221,451.25C918.603,448.186 916.467,445.4 913.931,443.039C911.481,440.759 908.662,438.878 905.612,437.498C903.073,436.349 900.379,435.55 897.624,435.129C896.135,434.901 894.633,434.788 893.127,434.774C892.994,434.773 892.861,434.773 892.728,434.774ZM906.81,451.731C905.714,450.635 903.941,450.635 902.845,451.731L892.927,461.648L883.01,451.731C881.914,450.635 880.141,450.635 879.045,451.731C877.948,452.828 877.948,454.6 879.045,455.697L888.962,465.614L879.045,475.531C877.948,476.628 877.948,478.4 879.045,479.497C879.592,480.044 880.31,480.318 881.028,480.318C881.746,480.318 882.464,480.044 883.01,479.497L892.927,469.58L902.845,479.497C903.391,480.044 904.109,480.318 904.827,480.318C905.545,480.318 906.263,480.044 906.81,479.497C907.907,478.4 907.907,476.628 906.81,475.531L896.893,465.614L906.81,455.697C907.904,454.603 907.904,452.828 906.81,451.731Z"/>
            </g>
        </g>
        <g id="Artboard71" transform="matrix(1,0,0,1,-512,441.204)">
            <rect x="1615" y="0" width="71" height="66" style="fill:none;"/>
            <g transform="matrix(2.01767,0,0,2.01767,1560.96,-62.7235)">
                <path d="M56.843,59.833L33.153,59.833C32.342,59.833 31.617,59.413 31.213,58.709C30.809,58.006 30.812,57.168 31.221,56.469L43.066,36.162C43.472,35.467 44.194,35.052 44.999,35.052C45.804,35.053 46.527,35.468 46.932,36.162L58.778,56.469C59.186,57.168 59.189,58.006 58.784,58.709C58.38,59.413 57.655,59.833 56.843,59.833ZM56.844,57.833C56.958,57.833 57.02,57.769 57.051,57.714C57.081,57.659 57.107,57.574 57.05,57.477L45.204,37.17C45.147,37.073 45.062,37.053 44.999,37.052C44.937,37.052 44.851,37.072 44.794,37.17L32.949,57.477C32.892,57.574 32.917,57.659 32.948,57.714C32.979,57.769 33.04,57.833 33.154,57.833L56.844,57.833ZM44.374,54.12C44.194,54.309 44.084,54.569 44.084,54.83C44.084,55.1 44.194,55.359 44.374,55.54C44.564,55.729 44.824,55.83 45.084,55.83C45.344,55.83 45.604,55.729 45.794,55.54C45.974,55.35 46.084,55.09 46.084,54.83C46.084,54.569 45.974,54.319 45.794,54.12C45.414,53.75 44.754,53.75 44.374,54.12ZM45.084,41.833C44.532,41.833 44.084,42.28 44.084,42.833L44.084,50.833C44.084,51.386 44.532,51.833 45.084,51.833C45.636,51.833 46.084,51.386 46.084,50.833L46.084,42.833C46.084,42.28 45.636,41.833 45.084,41.833Z"/>
            </g>
        </g>
        <g id="Artboard8" transform="matrix(1,0,0,1,-724,529)">
            <rect x="1736" y="0" width="71" height="66" style="fill:none;"/>
            <g transform="matrix(0.550354,0,0,0.550354,1284.56,-274.609)">
                <path d="M886.833,522.59C887.378,522.595 887.922,522.609 888.466,522.636C889.767,522.702 891.065,522.838 892.352,523.043C895.524,523.548 898.625,524.479 901.55,525.803C905.209,527.457 908.587,529.725 911.509,532.479C914.372,535.176 916.796,538.336 918.653,541.804C920.337,544.947 921.552,548.336 922.245,551.833C923.009,555.684 923.143,559.658 922.647,563.552C922.175,567.262 921.124,570.895 919.541,574.283C917.688,578.249 915.113,581.869 911.981,584.928C908.74,588.092 904.912,590.646 900.74,592.411C898.474,593.37 896.109,594.097 893.695,594.576C891.436,595.024 889.135,595.255 886.833,595.269C884.45,595.284 882.066,595.068 879.725,594.619C877.379,594.169 875.078,593.485 872.866,592.581C868.671,590.866 864.81,588.357 861.53,585.23C858.417,582.262 855.834,578.743 853.942,574.879C852.301,571.528 851.184,567.924 850.643,564.232C850.074,560.347 850.135,556.368 850.826,552.502C851.455,548.986 852.609,545.568 854.238,542.389C856.132,538.692 858.665,535.327 861.688,532.479C864.504,529.826 867.741,527.624 871.246,525.987C874.289,524.566 877.528,523.572 880.845,523.043C882.517,522.777 884.204,522.633 885.896,522.596C886.208,522.591 886.521,522.589 886.833,522.59ZM886.399,528.09C884.829,528.104 883.262,528.227 881.711,528.475C879.023,528.903 876.394,529.692 873.914,530.814C870.808,532.219 867.941,534.144 865.46,536.482C862.983,538.815 860.894,541.556 859.305,544.566C857.923,547.183 856.923,550 856.347,552.904C855.686,556.237 855.581,559.682 856.031,563.051C856.451,566.191 857.36,569.262 858.719,572.124C860.286,575.425 862.445,578.44 865.059,580.992C867.81,583.679 871.06,585.847 874.601,587.346C876.522,588.159 878.526,588.775 880.573,589.181C882.49,589.561 884.444,589.757 886.399,589.769C888.423,589.782 890.448,589.599 892.436,589.218C894.425,588.836 896.375,588.257 898.25,587.49C901.811,586.034 905.088,583.904 907.872,581.25C910.56,578.686 912.784,575.64 914.398,572.293C915.772,569.441 916.701,566.378 917.14,563.243C917.62,559.813 917.524,556.301 916.85,552.904C916.262,549.939 915.232,547.065 913.805,544.401C912.227,541.456 910.169,538.773 907.737,536.482C905.302,534.187 902.495,532.289 899.454,530.891C896.924,529.728 894.237,528.913 891.487,528.475C890.001,528.238 888.501,528.116 886.998,528.091C886.798,528.09 886.599,528.089 886.399,528.09ZM899.013,545.571L884.166,566.903L873.689,558.304C872.559,557.37 870.885,557.542 869.956,558.67C869.025,559.803 869.189,561.477 870.325,562.403L883.023,572.827C883.498,573.22 884.095,573.429 884.705,573.429C884.824,573.429 884.946,573.421 885.068,573.403C885.801,573.302 886.459,572.899 886.883,572.291L903.37,548.601C904.205,547.399 903.911,545.747 902.706,544.908C901.502,544.064 899.852,544.367 899.013,545.571Z"/>
            </g>
        </g>
        <g id="Artboard81" transform="matrix(1,0,0,1,-633,529)">
            <rect x="1736" y="0" width="71" height="66" style="fill:none;"/>
            <g transform="matrix(1,0,0,1,633,-529)">
                <path d="M1139.01,554.717C1140.01,554.73 1141,554.844 1141.98,555.069C1143.55,555.432 1145.05,556.07 1146.42,556.913C1147.54,557.598 1148.57,558.417 1149.52,559.324C1150.47,560.238 1151.33,561.243 1152.11,562.307C1152.52,562.859 1152.89,563.43 1153.26,564.001L1153.29,564.05C1153.29,564.067 1153.3,564.085 1153.3,564.102C1153.32,564.156 1153.31,564.213 1153.29,564.264C1153.28,564.281 1153.27,564.296 1153.26,564.313C1153.06,564.627 1152.85,564.942 1152.64,565.256C1152.39,565.635 1152.13,566.009 1151.85,566.375C1151.15,567.315 1150.38,568.205 1149.54,569.025C1147.67,570.856 1145.42,572.334 1142.91,573.12C1142.14,573.362 1141.34,573.535 1140.54,573.642C1140.42,573.666 1140.31,573.687 1140.19,573.706C1139.82,573.762 1139.44,573.796 1139.07,573.795C1138.85,573.795 1138.64,573.781 1138.43,573.762L1138.32,573.752L1138.23,573.741C1138.07,573.734 1137.92,573.725 1137.76,573.714C1136.88,573.645 1136.01,573.498 1135.15,573.266C1134.56,573.106 1133.99,572.909 1133.43,572.676C1132.93,572.472 1132.45,572.24 1131.98,571.984C1130.04,570.931 1128.33,569.479 1126.88,567.823C1126.1,566.942 1125.4,566.002 1124.76,565.023L1124.4,564.476C1124.39,564.46 1124.38,564.444 1124.37,564.427C1124.34,564.359 1124.34,564.281 1124.37,564.213C1124.38,564.196 1124.39,564.181 1124.4,564.164C1124.61,563.84 1124.82,563.515 1125.04,563.192C1125.68,562.235 1126.38,561.316 1127.16,560.456C1128.67,558.771 1130.45,557.307 1132.48,556.28C1132.97,556.03 1133.48,555.807 1133.99,555.613C1134.62,555.378 1135.26,555.186 1135.91,555.042C1136.81,554.843 1137.72,554.739 1138.63,554.718C1138.76,554.717 1138.88,554.716 1139.01,554.717ZM1143.2,558.146C1143.58,558.421 1143.94,558.733 1144.27,559.075C1144.89,559.731 1145.39,560.498 1145.75,561.332C1146.05,562.048 1146.24,562.81 1146.31,563.584C1146.38,564.406 1146.32,565.239 1146.13,566.04C1145.93,566.842 1145.6,567.609 1145.15,568.303C1144.64,569.103 1143.98,569.8 1143.21,570.354C1144.15,569.947 1145.03,569.42 1145.85,568.812L1145.86,568.794C1145.89,568.756 1145.89,568.756 1145.93,568.724C1146.08,568.612 1146.08,568.612 1146.23,568.498C1146.95,567.937 1147.63,567.323 1148.26,566.658C1149,565.886 1149.65,565.053 1150.27,564.183L1150.28,564.162C1149.98,563.729 1149.66,563.307 1149.32,562.898C1147.76,560.986 1145.83,559.32 1143.57,558.305C1143.44,558.25 1143.32,558.197 1143.2,558.146ZM1134.33,558.25C1132.45,559.065 1130.8,560.332 1129.4,561.81C1128.92,562.322 1128.46,562.86 1128.03,563.42C1127.82,563.695 1127.62,563.975 1127.42,564.258L1127.38,564.314C1128.48,565.87 1129.77,567.303 1131.28,568.468C1131.65,568.753 1132.04,569.022 1132.43,569.272C1132.63,569.394 1132.82,569.509 1133.02,569.624C1133.3,569.786 1133.58,569.942 1133.87,570.083C1134.05,570.172 1134.24,570.255 1134.42,570.334C1134.15,570.137 1133.89,569.922 1133.65,569.69C1133,569.066 1132.45,568.325 1132.06,567.511C1131.73,566.816 1131.5,566.069 1131.39,565.304C1131.28,564.517 1131.3,563.711 1131.44,562.928C1131.56,562.261 1131.77,561.61 1132.06,561C1132.58,559.917 1133.37,558.971 1134.33,558.25ZM1138.76,559.101C1138.03,559.115 1137.32,559.273 1136.65,559.582C1136.07,559.854 1135.54,560.235 1135.1,560.7C1134.67,561.15 1134.32,561.678 1134.08,562.25C1133.87,562.741 1133.74,563.263 1133.7,563.793C1133.64,564.4 1133.69,565.017 1133.85,565.605C1134.06,566.35 1134.43,567.045 1134.93,567.628C1135.45,568.223 1136.1,568.698 1136.83,569.006C1137.44,569.265 1138.1,569.401 1138.76,569.41C1139.43,569.418 1140.1,569.298 1140.72,569.053C1141.32,568.817 1141.87,568.467 1142.34,568.029C1142.8,567.606 1143.17,567.101 1143.45,566.545C1143.68,566.072 1143.85,565.563 1143.92,565.042C1144.01,564.479 1144,563.903 1143.9,563.342C1143.82,562.865 1143.66,562.4 1143.45,561.966C1142.95,560.962 1142.12,560.135 1141.12,559.636C1140.47,559.312 1139.76,559.137 1139.03,559.105C1138.94,559.102 1138.85,559.101 1138.76,559.101Z"/>
            </g>
        </g>
        <g id="Artboard9" transform="matrix(1,0,0,1,-845,618.602)">
            <rect x="1857" y="0" width="71" height="66" style="fill:none;"/>
        </g>
        <g id="Artboard91" transform="matrix(1,0,0,1,-754,618.602)">
            <rect x="1857" y="0" width="71" height="66" style="fill:none;"/>
        </g>
    </g>
</svg>
