<?xml version="1.0" encoding="UTF-8" standalone="no"?><!DOCTYPE svg PUBLIC "-//W3C//DTD SVG 1.1//EN" "http://www.w3.org/Graphics/SVG/1.1/DTD/svg11.dtd"><svg width="100%" height="100%" viewBox="0 0 71 67" version="1.1" xmlns="http://www.w3.org/2000/svg" xmlns:xlink="http://www.w3.org/1999/xlink" xml:space="preserve" style="fill-rule:evenodd;clip-rule:evenodd;stroke-linejoin:round;stroke-miterlimit:1.41421;"><rect id="Artboard3" x="0" y="0.602" width="71" height="66" style="fill:none;"/><path d="M57.63,7.724c3.229,0 5.87,2.642 5.87,5.87l0,28.174c0,3.228 -2.641,5.869 -5.87,5.869l-5.869,0l0,10.214c0,0.469 -0.235,0.88 -0.646,1.056c-0.176,0.059 -0.352,0.117 -0.528,0.117c-0.235,0 -0.47,-0.058 -0.704,-0.234l-13.383,-10.389c-0.646,-0.529 -1.409,-0.764 -2.172,-0.764l-18.958,0c-3.229,0 -5.87,-2.641 -5.87,-5.869l0,-28.174c0,-3.228 2.641,-5.87 5.87,-5.87l42.26,0Zm0,37.566c1.937,0 3.522,-1.585 3.522,-3.522l0,-28.174c0,-1.937 -1.585,-3.522 -3.522,-3.522l-42.26,0c-1.937,0 -3.522,1.585 -3.522,3.522l0,28.174c0,1.937 1.585,3.522 3.522,3.522l18.958,0c1.292,0 2.524,0.411 3.581,1.232l11.504,8.922l0,-13.676c0,-0.646 0.528,-1.174 1.174,-1.174c0.646,0 1.174,0.528 1.174,1.174l0,3.522l5.869,0Zm-17.608,-11.739c0.645,0 1.174,0.528 1.174,1.173c0,0.646 -0.529,1.174 -1.174,1.174l-18.196,0c-0.646,0 -1.174,-0.528 -1.174,-1.174c0,-0.645 0.528,-1.173 1.174,-1.173l18.196,0Zm4.695,-7.044c0.646,0 1.174,0.528 1.174,1.174c0,0.646 -0.528,1.174 -1.174,1.174l-22.891,0c-0.646,0 -1.174,-0.528 -1.174,-1.174c0,-0.646 0.528,-1.174 1.174,-1.174l22.891,0Zm7.044,0c0.646,0 1.174,0.528 1.174,1.174c0,0.646 -0.528,1.174 -1.174,1.174l-1.761,0c-0.646,0 -1.174,-0.528 -1.174,-1.174c0,-0.646 0.528,-1.174 1.174,-1.174l1.761,0Zm-5.87,-7.043c0.646,0 1.174,0.528 1.174,1.173c0,0.646 -0.528,1.174 -1.174,1.174l-24.065,0c-0.646,0 -1.174,-0.528 -1.174,-1.174c0,-0.645 0.528,-1.173 1.174,-1.173l24.065,0Z"/></svg>