<?xml version="1.0" encoding="UTF-8" standalone="no"?><!DOCTYPE svg PUBLIC "-//W3C//DTD SVG 1.1//EN" "http://www.w3.org/Graphics/SVG/1.1/DTD/svg11.dtd"><svg width="100%" height="100%" viewBox="0 0 71 66" version="1.1" xmlns="http://www.w3.org/2000/svg" xmlns:xlink="http://www.w3.org/1999/xlink" xml:space="preserve" style="fill-rule:evenodd;clip-rule:evenodd;stroke-linejoin:round;stroke-miterlimit:1.41421;"><rect id="Artboard2" x="0" y="0" width="71" height="66" style="fill:none;"/><path d="M58.35,12.28c2.97,0 5.4,2.43 5.4,5.4l0,30.24c0,2.97 -2.43,5.4 -5.4,5.4l-43.2,0c-2.97,0 -5.4,-2.43 -5.4,-5.4l0,-30.24c0,-2.97 2.43,-5.4 5.4,-5.4l43.2,0Zm0,38.88c1.566,-0.001 2.916,-1.135 3.24,-2.646l-7.182,-7.992c-0.432,-0.432 -0.378,-1.134 0.054,-1.512c0.432,-0.432 1.134,-0.378 1.512,0.054l5.616,6.264l0,-20.898l-22.626,10.152c-0.702,0.27 -1.458,0.432 -2.214,0.432c-0.756,0 -1.512,-0.108 -2.214,-0.432l-22.626,-10.152l0,21.384l11.07,-11.556c0.378,-0.432 1.08,-0.486 1.512,-0.054c0.432,0.378 0.486,1.08 0.054,1.512l-12.528,13.068c0.378,1.35 1.62,2.376 3.132,2.376l43.2,0Zm-7.344,-14.364c0.216,0.216 0.486,0.378 0.81,0.378c0.27,0 0.54,-0.108 0.702,-0.27c0.432,-0.378 0.486,-1.08 0.054,-1.512l-0.972,-1.134c-0.378,-0.432 -1.08,-0.486 -1.512,-0.054c-0.432,0.378 -0.486,1.08 -0.054,1.512l0.972,1.08Zm10.584,-14.688l-23.49,10.53c-0.864,0.378 -1.836,0.378 -2.7,0l-23.49,-10.53l0,-4.428c0,-1.782 1.458,-3.24 3.24,-3.24l43.2,0c1.782,0 3.24,1.458 3.24,3.24l0,4.428Z"/></svg>