<?xml version="1.0" encoding="UTF-8" standalone="no"?><!DOCTYPE svg PUBLIC "-//W3C//DTD SVG 1.1//EN" "http://www.w3.org/Graphics/SVG/1.1/DTD/svg11.dtd"><svg width="100%" height="100%" viewBox="0 0 71 66" version="1.1" xmlns="http://www.w3.org/2000/svg" xmlns:xlink="http://www.w3.org/1999/xlink" xml:space="preserve" style="fill-rule:evenodd;clip-rule:evenodd;stroke-linejoin:round;stroke-miterlimit:1.41421;"><rect id="Artboard4" x="0" y="0" width="71" height="66" style="fill:none;"/><path d="M59.923,50.884l-4.183,-6.971c-0.755,-1.22 -1.22,-2.498 -1.336,-3.892l-2.556,-17.426c0,-0.059 0,-0.059 0,-0.117c-0.813,-3.427 -3.311,-6.215 -6.564,-7.551l-0.639,-0.291c-0.174,-0.116 -0.406,-0.174 -0.581,-0.232c-0.116,-0.058 -0.174,-0.058 -0.29,-0.116c-0.058,-0.058 -0.116,-0.058 -0.116,-0.058l-2.963,-5.693c-0.581,-1.336 -1.975,-2.149 -3.543,-2.149l-0.581,0c-1.51,0 -2.846,0.813 -3.601,2.207l-3.021,5.635l-0.058,0.058c-0.349,0.116 -0.755,0.232 -0.988,0.348l-0.697,0.233c-3.253,1.336 -5.75,4.124 -6.564,7.551c0,0.058 0,0.058 0,0.116l-2.556,17.427c-0.232,1.336 -0.697,2.672 -1.336,3.892l-4.182,6.97c-0.523,0.93 -0.581,1.976 -0.058,2.905c0.523,0.929 1.452,1.452 2.556,1.452l13.941,0c0,0.116 -0.058,0.174 -0.058,0.291c0,3.659 3.021,6.68 6.68,6.68c3.66,0 6.68,-3.021 6.68,-6.68c0,-0.117 0,-0.175 -0.058,-0.291l14.29,0c1.046,0 1.975,-0.581 2.498,-1.452c0.465,-0.871 0.406,-1.975 -0.116,-2.846Zm-18.995,4.647c0,2.381 -1.975,4.356 -4.357,4.356c-2.382,0 -4.357,-1.975 -4.357,-4.356c0,-0.117 0,-0.175 -0.058,-0.291l8.772,0c0,0.116 0,0.174 0,0.291Zm17.02,-2.905c-0.058,0.058 -0.175,0.291 -0.465,0.291l-41.475,0c-0.349,0 -0.465,-0.175 -0.523,-0.291c-0.058,-0.116 -0.116,-0.29 0,-0.581l4.182,-6.97c0.872,-1.511 1.394,-3.079 1.627,-4.705l2.556,-17.369c0.697,-2.672 2.614,-4.879 5.111,-5.867l0.698,-0.232c0.29,-0.116 0.58,-0.233 0.929,-0.349l0.058,0c0.523,-0.232 0.988,-0.581 1.278,-1.045c0,0 0,-0.058 0.058,-0.058l3.021,-5.693c0.348,-0.639 0.871,-0.929 1.51,-0.929l0.581,0c0.639,0 1.22,0.348 1.452,0.813c0,0 0,0.058 0.058,0.058l3.021,5.751c0,0 0,0.058 0.058,0.058c0.29,0.464 0.697,0.871 1.278,1.045c0.174,0.058 0.29,0.116 0.464,0.175c0.117,0.058 0.175,0.058 0.291,0.116c0,0 0.058,0 0.058,0.058l0.697,0.29c2.556,1.046 4.473,3.195 5.17,5.867l2.556,17.311c0.174,1.626 0.755,3.253 1.684,4.763l4.183,6.97c0,0.175 -0.058,0.407 -0.116,0.523Z" style="fill-rule:nonzero;"/></svg>