<?xml version="1.0" encoding="UTF-8" standalone="no"?><!DOCTYPE svg PUBLIC "-//W3C//DTD SVG 1.1//EN" "http://www.w3.org/Graphics/SVG/1.1/DTD/svg11.dtd"><svg width="100%" height="100%" viewBox="0 0 71 66" version="1.1" xmlns="http://www.w3.org/2000/svg" xmlns:xlink="http://www.w3.org/1999/xlink" xml:space="preserve" style="fill-rule:evenodd;clip-rule:evenodd;stroke-linejoin:round;stroke-miterlimit:1.41421;"><rect id="Artboard4" x="0" y="0" width="71" height="66" style="fill:none;"/><path d="M49.513,26.334c-3.584,-4.466 -7.334,-9.153 -7.223,-17.7c0,-0.441 -0.221,-0.772 -0.607,-0.992c-0.386,-0.166 -0.827,-0.166 -1.158,0.055c-6.01,4.301 -11.359,13.73 -9.815,25.199c-2.095,-1.213 -3.363,-3.254 -4.797,-5.404c-0.441,-0.717 -0.882,-1.434 -1.378,-2.095c-0.221,-0.276 -0.552,-0.497 -0.938,-0.441c-0.386,0 -0.716,0.22 -0.882,0.496c-2.867,4.466 -5.79,9.87 -5.79,15.715c0,11.524 8.106,19.85 19.299,19.85c11.304,0 19.851,-8.547 19.851,-19.85c0,-6.672 -3.309,-10.808 -6.562,-14.833Zm-13.289,32.477c-9.925,0 -17.093,-7.444 -17.093,-17.644c0,-4.687 2.15,-9.209 4.577,-13.124c0.11,0.221 0.275,0.386 0.386,0.607c1.488,2.316 2.977,4.632 5.514,6.12c0.716,0.441 1.599,0.441 2.315,0c0.717,-0.441 1.103,-1.268 0.993,-2.15c-1.323,-9.429 2.481,-17.369 7.223,-21.67c0.552,7.94 4.301,12.627 7.665,16.818c3.253,4.025 6.065,7.499 6.065,13.399c0,10.035 -7.609,17.644 -17.645,17.644Zm10.367,-7.444c-0.442,-0.386 -1.158,-0.33 -1.544,0.111c-0.276,0.331 -0.662,0.661 -1.048,0.992c-0.441,0.386 -0.496,1.103 -0.11,1.544c0.22,0.276 0.551,0.386 0.827,0.386c0.276,0 0.496,-0.11 0.717,-0.276c0.441,-0.386 0.882,-0.772 1.268,-1.213c0.386,-0.441 0.331,-1.158 -0.11,-1.544Zm4.521,-13.509c-0.607,0 -1.103,0.496 -1.103,1.103c0,3.639 -0.937,6.948 -2.867,9.87c-0.331,0.496 -0.165,1.213 0.331,1.544c0.165,0.11 0.386,0.165 0.606,0.165c0.386,0 0.717,-0.165 0.938,-0.496c2.095,-3.308 3.198,-7.003 3.198,-11.083c0,-0.607 -0.496,-1.103 -1.103,-1.103Z"/></svg>