<?xml version="1.0" encoding="UTF-8" standalone="no"?><!DOCTYPE svg PUBLIC "-//W3C//DTD SVG 1.1//EN" "http://www.w3.org/Graphics/SVG/1.1/DTD/svg11.dtd"><svg width="100%" height="100%" viewBox="0 0 71 66" version="1.1" xmlns="http://www.w3.org/2000/svg" xmlns:xlink="http://www.w3.org/1999/xlink" xml:space="preserve" style="fill-rule:evenodd;clip-rule:evenodd;stroke-linejoin:round;stroke-miterlimit:1.41421;"><rect id="Artboard5" x="0" y="0" width="71" height="66" style="fill:none;"/><path d="M58.802,59.207l-44.65,0c-0.993,0 -1.882,-0.418 -2.457,-1.202c-0.575,-0.785 -0.784,-1.778 -0.523,-2.771l2.405,-8c1.359,-4.81 5.176,-8.522 9.986,-9.777l0.628,-0.209c0.104,-0.052 0.209,-0.052 0.313,-0.052l0.053,0c0.888,-0.157 1.829,0.157 2.457,0.836c1.934,2.249 5.176,4.915 9.463,4.915c3.399,0 6.693,-1.725 9.464,-5.019l0.052,-0.053c0.68,-0.732 1.621,-0.993 2.509,-0.784c0.105,0.052 0.21,0.052 0.262,0.105l0.68,0.209c4.757,1.255 8.574,4.967 9.933,9.777l2.406,7.947c0.313,0.993 0.156,1.987 -0.471,2.823c-0.575,0.785 -1.516,1.255 -2.51,1.255Zm0,-2.143c0.314,0 0.628,-0.157 0.837,-0.419c0.104,-0.157 0.261,-0.47 0.209,-0.941l-2.405,-7.947c-1.15,-4.078 -4.444,-7.267 -8.522,-8.313l-0.68,-0.209c-0.105,0 -0.157,-0.052 -0.209,-0.052c-0.262,0 -0.418,0.104 -0.523,0.209c-3.189,3.66 -7.058,5.646 -11.032,5.646c-3.921,0 -7.842,-1.986 -11.032,-5.646c-0.104,-0.105 -0.313,-0.209 -0.522,-0.157c-0.053,0.052 -0.157,0.052 -0.262,0.052l-0.523,0.157c-4.182,1.046 -7.424,4.235 -8.574,8.313l-2.405,7.947c-0.053,0.314 0,0.68 0.209,0.941c0.157,0.262 0.47,0.419 0.784,0.419l44.65,0Zm-22.325,-18.77c6.954,0 13.071,-8.575 13.071,-18.3c0,-7.215 -5.856,-13.07 -13.071,-13.07c-7.215,0 -13.071,5.855 -13.071,13.07c0,9.725 6.117,18.3 13.071,18.3Zm-10.951,-18.3c-0.041,-0.708 -0.034,-0.934 0.181,-2.091c0.941,-5.071 5.437,-8.888 10.77,-8.888c5.124,0 9.411,3.555 10.614,8.313c0.279,1.104 0.359,2.414 0.359,2.414l-0.012,0.001c0.01,0.084 0.019,0.168 0.019,0.251c0,8.627 -5.124,16.208 -10.98,16.208c-5.856,0 -10.979,-7.581 -10.979,-16.208l0.028,0Z"/></svg>