<?xml version="1.0" encoding="UTF-8" standalone="no"?><!DOCTYPE svg PUBLIC "-//W3C//DTD SVG 1.1//EN" "http://www.w3.org/Graphics/SVG/1.1/DTD/svg11.dtd"><svg width="100%" height="100%" viewBox="0 0 71 66" version="1.1" xmlns="http://www.w3.org/2000/svg" xmlns:xlink="http://www.w3.org/1999/xlink" xml:space="preserve" style="fill-rule:evenodd;clip-rule:evenodd;stroke-linejoin:round;stroke-miterlimit:1.41421;"><rect id="Artboard5" x="0" y="0" width="71" height="66" style="fill:none;"/><path d="M36.881,48.461c0.119,0.012 0.234,0.035 0.345,0.079c0.295,0.118 0.533,0.359 0.647,0.655c0.043,0.112 0.065,0.227 0.075,0.346c0.086,2.636 0.037,5.273 0.055,7.91c-0.004,0.2 -0.047,0.392 -0.145,0.567c-0.058,0.104 -0.132,0.198 -0.218,0.279c-0.307,0.288 -0.759,0.386 -1.157,0.25c-0.131,-0.044 -0.254,-0.112 -0.361,-0.2c-0.106,-0.088 -0.197,-0.195 -0.266,-0.315c-0.09,-0.157 -0.136,-0.327 -0.151,-0.506c-0.086,-2.635 -0.037,-5.273 -0.055,-7.91c0.002,-0.119 0.016,-0.236 0.052,-0.35c0.101,-0.323 0.345,-0.59 0.657,-0.72c0.13,-0.054 0.264,-0.079 0.403,-0.087c0.06,0 0.06,0 0.119,0.002Zm-12.509,3.328c0.166,0.006 0.326,0.041 0.476,0.113c0.428,0.205 0.691,0.667 0.649,1.14c-0.015,0.165 -0.067,0.321 -0.146,0.466c-0.751,1.265 -1.524,2.516 -2.319,3.752c-0.094,0.136 -0.21,0.253 -0.351,0.34c-0.129,0.079 -0.272,0.132 -0.421,0.157c-0.135,0.021 -0.274,0.019 -0.408,-0.008c-0.423,-0.084 -0.771,-0.408 -0.885,-0.824c-0.032,-0.118 -0.046,-0.242 -0.039,-0.365c0.01,-0.18 0.063,-0.35 0.149,-0.508c0.75,-1.264 1.523,-2.515 2.318,-3.752c0.047,-0.068 0.099,-0.131 0.158,-0.189c0.18,-0.173 0.409,-0.278 0.655,-0.313c0.055,-0.006 0.109,-0.009 0.164,-0.009Zm25.469,-1.145c0.254,0.014 0.496,0.101 0.693,0.264c0.061,0.051 0.115,0.109 0.166,0.17c0.893,1.166 1.767,2.348 2.62,3.545c0.103,0.155 0.172,0.329 0.194,0.515c0.014,0.118 0.01,0.238 -0.013,0.355c-0.082,0.423 -0.404,0.772 -0.818,0.888c-0.127,0.036 -0.261,0.049 -0.393,0.04c-0.145,-0.01 -0.288,-0.049 -0.419,-0.112c-0.157,-0.076 -0.289,-0.186 -0.4,-0.32c-0.893,-1.166 -1.767,-2.348 -2.62,-3.545c-0.088,-0.133 -0.152,-0.279 -0.182,-0.436c-0.07,-0.368 0.049,-0.756 0.312,-1.023c0.074,-0.075 0.159,-0.14 0.251,-0.192c0.14,-0.079 0.292,-0.125 0.451,-0.144c0.053,-0.004 0.105,-0.006 0.158,-0.005Zm-13.044,-35.238c0.245,0.013 0.473,0.107 0.657,0.27c0.085,0.075 0.155,0.162 0.22,0.254l5.907,9.651c3.662,0.861 7.324,1.722 10.986,2.583c0.029,0.007 0.058,0.012 0.087,0.02c0.033,0.01 0.064,0.022 0.096,0.034c0.181,0.079 0.337,0.203 0.449,0.366c0.252,0.368 0.269,0.92 -0.028,1.268l-0.014,0.015l-7.363,8.596c0.295,3.753 0.591,7.505 0.886,11.257c0.003,0.032 0.007,0.064 0.009,0.096c0.003,0.143 -0.019,0.284 -0.072,0.418c-0.077,0.19 -0.208,0.346 -0.374,0.463c-0.098,0.07 -0.202,0.127 -0.317,0.164c-0.105,0.032 -0.215,0.047 -0.325,0.047c-0.139,0 -0.273,-0.036 -0.401,-0.089l-0.032,-0.014l-10.407,-4.356c-3.456,1.452 -6.913,2.903 -10.369,4.355c-0.028,0.012 -0.056,0.026 -0.086,0.037c-0.23,0.079 -0.475,0.073 -0.703,-0.014c-0.082,-0.032 -0.159,-0.074 -0.234,-0.121l-0.034,-0.025c-0.064,-0.054 -0.124,-0.112 -0.177,-0.178c-0.176,-0.22 -0.274,-0.5 -0.24,-0.782l0.887,-11.258c-2.454,-2.865 -4.908,-5.73 -7.362,-8.595c-0.021,-0.024 -0.043,-0.047 -0.063,-0.072c-0.023,-0.029 -0.043,-0.058 -0.063,-0.088c-0.042,-0.072 -0.078,-0.146 -0.102,-0.226c-0.102,-0.336 -0.026,-0.72 0.198,-0.991c0.148,-0.178 0.345,-0.296 0.564,-0.363l11.002,-2.586l5.867,-9.611l0.04,-0.057c0.055,-0.071 0.113,-0.138 0.181,-0.198c0.184,-0.163 0.412,-0.257 0.657,-0.27c0.037,-0.001 0.036,-0.001 0.073,0Zm-5.162,11.686c-0.162,0.236 -0.415,0.421 -0.695,0.487l-9.7,2.268c2.141,2.524 4.281,5.049 6.422,7.574c0.018,0.02 0.036,0.039 0.053,0.06c0.029,0.037 0.028,0.037 0.054,0.075c0.03,0.051 0.058,0.102 0.08,0.156c0.062,0.157 0.084,0.324 0.086,0.491l-0.001,0.027l-0.781,9.924l9.188,-3.832c0.094,-0.033 0.187,-0.068 0.286,-0.086c0.182,-0.033 0.367,0.008 0.535,0.077l0.032,0.015l9.173,3.826l-0.78,-9.924c-0.007,-0.253 0.067,-0.495 0.2,-0.71l0.026,-0.04l0.032,-0.044l6.511,-7.59c-3.246,-0.759 -6.488,-1.538 -9.74,-2.276c-0.051,-0.015 -0.051,-0.015 -0.101,-0.032c-0.065,-0.027 -0.128,-0.057 -0.188,-0.097c-0.134,-0.089 -0.237,-0.211 -0.323,-0.346l-5.204,-8.513c-1.721,2.837 -3.443,5.674 -5.165,8.51Zm-8.765,11.301c0.167,0.012 0.327,0.051 0.477,0.129c0.092,0.048 0.178,0.109 0.253,0.18c0.276,0.258 0.41,0.645 0.351,1.018c-0.02,0.123 -0.059,0.243 -0.117,0.354c-0.098,0.187 -0.244,0.335 -0.42,0.449c-2.87,1.647 -5.827,3.139 -8.74,4.707c-0.056,0.029 -0.112,0.055 -0.171,0.075c-0.158,0.054 -0.326,0.074 -0.492,0.057c-0.124,-0.013 -0.245,-0.046 -0.359,-0.097c-0.094,-0.043 -0.183,-0.099 -0.262,-0.166c-0.324,-0.271 -0.474,-0.709 -0.386,-1.121c0.03,-0.142 0.088,-0.279 0.168,-0.399c0.094,-0.141 0.216,-0.251 0.357,-0.343c2.87,-1.647 5.827,-3.138 8.741,-4.707c0.074,-0.038 0.15,-0.071 0.23,-0.094c0.081,-0.023 0.162,-0.034 0.245,-0.041c0.063,-0.002 0.062,-0.002 0.125,-0.001Zm27.881,0.07c0.064,0.004 0.126,0.01 0.189,0.023c0.083,0.017 0.162,0.045 0.24,0.078c2.98,1.439 5.88,3.04 8.819,4.562c0.149,0.082 0.281,0.186 0.385,0.323c0.09,0.117 0.157,0.252 0.196,0.395c0.033,0.122 0.046,0.25 0.038,0.377c-0.026,0.406 -0.273,0.776 -0.638,0.957c-0.095,0.047 -0.196,0.08 -0.3,0.1c-0.166,0.03 -0.339,0.024 -0.502,-0.019c-0.062,-0.016 -0.12,-0.039 -0.179,-0.063c-2.98,-1.44 -5.879,-3.041 -8.819,-4.562c-0.187,-0.104 -0.345,-0.244 -0.456,-0.428c-0.199,-0.33 -0.218,-0.747 -0.051,-1.094c0.046,-0.095 0.106,-0.184 0.176,-0.263c0.084,-0.095 0.184,-0.175 0.294,-0.238c0.15,-0.084 0.311,-0.128 0.481,-0.145c0.064,-0.003 0.063,-0.003 0.127,-0.003Zm-21.156,-4.716c0.086,0.004 0.17,0.014 0.254,0.036c0.205,0.054 0.384,0.165 0.527,0.321c0.088,0.106 0.167,0.219 0.25,0.33c0.073,0.089 0.145,0.179 0.215,0.271c0.07,0.094 0.139,0.189 0.206,0.285c0.194,0.287 0.371,0.585 0.525,0.896c0.325,0.66 0.548,1.37 0.656,2.099c0.07,0.478 0.089,0.96 0.065,1.443c-0.052,0.852 -0.133,1.702 -0.201,2.554c-0.019,0.151 -0.063,0.294 -0.141,0.426c-0.193,0.328 -0.552,0.541 -0.934,0.545c-0.056,0 -0.108,0 -0.164,-0.008c-0.108,-0.016 -0.213,-0.048 -0.31,-0.095c-0.111,-0.053 -0.212,-0.126 -0.297,-0.213c-0.098,-0.099 -0.176,-0.217 -0.23,-0.344c-0.063,-0.15 -0.087,-0.308 -0.085,-0.47c0.058,-0.898 0.162,-1.793 0.211,-2.691c0.014,-0.337 -0.003,-0.674 -0.057,-1.007c-0.099,-0.601 -0.316,-1.181 -0.633,-1.701c-0.115,-0.189 -0.243,-0.37 -0.382,-0.541c-0.112,-0.138 -0.232,-0.27 -0.345,-0.407c-0.032,-0.043 -0.032,-0.043 -0.062,-0.089c-0.081,-0.137 -0.135,-0.284 -0.153,-0.443c-0.047,-0.424 0.157,-0.857 0.534,-1.065c0.139,-0.077 0.291,-0.116 0.448,-0.13c0.052,-0.002 0.051,-0.002 0.103,-0.002Zm-2.26,-2.597c0.243,0.012 0.476,0.09 0.669,0.24c0.056,0.044 0.106,0.093 0.155,0.145l0.79,0.949c0.065,0.087 0.121,0.178 0.162,0.279c0.098,0.24 0.11,0.514 0.016,0.757c-0.071,0.184 -0.197,0.331 -0.356,0.445c-0.133,0.097 -0.274,0.18 -0.435,0.221c-0.279,0.072 -0.589,0.017 -0.83,-0.141c-0.081,-0.052 -0.151,-0.116 -0.215,-0.187c-0.276,-0.332 -0.554,-0.662 -0.829,-0.996c-0.075,-0.103 -0.134,-0.214 -0.168,-0.338c-0.121,-0.438 0.063,-0.945 0.438,-1.202c0.135,-0.093 0.287,-0.143 0.448,-0.166c0.052,-0.004 0.103,-0.007 0.155,-0.006Zm-16.026,-4.457c0.044,0.002 0.088,0.005 0.132,0.01c1.454,0.227 2.904,0.483 4.349,0.766c0.188,0.044 0.361,0.126 0.508,0.252c0.089,0.077 0.166,0.167 0.228,0.267c0.227,0.368 0.227,0.846 -0.002,1.213c-0.07,0.112 -0.16,0.212 -0.263,0.294c-0.116,0.091 -0.248,0.16 -0.389,0.201c-0.157,0.046 -0.318,0.055 -0.48,0.036c-1.455,-0.227 -2.905,-0.483 -4.35,-0.765c-0.187,-0.045 -0.361,-0.127 -0.507,-0.253c-0.089,-0.076 -0.167,-0.167 -0.228,-0.267c-0.196,-0.315 -0.226,-0.715 -0.08,-1.057c0.047,-0.108 0.109,-0.209 0.186,-0.298c0.096,-0.111 0.213,-0.204 0.344,-0.271c0.145,-0.075 0.301,-0.115 0.464,-0.127c0.044,-0.001 0.044,-0.001 0.088,-0.001Zm50.969,0.001c0.192,0.015 0.377,0.069 0.541,0.17c0.1,0.062 0.19,0.139 0.267,0.228c0.242,0.282 0.334,0.672 0.243,1.032c-0.028,0.114 -0.075,0.223 -0.136,0.323c-0.078,0.125 -0.179,0.235 -0.297,0.322c-0.132,0.097 -0.281,0.16 -0.439,0.198c-1.445,0.282 -2.895,0.538 -4.35,0.765c-0.162,0.019 -0.323,0.01 -0.479,-0.036c-0.141,-0.041 -0.274,-0.11 -0.389,-0.201c-0.104,-0.082 -0.194,-0.182 -0.264,-0.294c-0.062,-0.1 -0.108,-0.209 -0.138,-0.323c-0.107,-0.419 0.036,-0.875 0.364,-1.157c0.147,-0.126 0.32,-0.208 0.508,-0.252c1.445,-0.283 2.895,-0.539 4.35,-0.766c0.044,-0.005 0.087,-0.008 0.131,-0.01c0.045,0 0.044,0 0.088,0.001Zm-40.545,-12.138c0.077,0.005 0.152,0.013 0.227,0.031c0.208,0.051 0.389,0.159 0.543,0.306c2.277,2.399 4.433,4.909 6.649,7.365c0.126,0.146 0.22,0.313 0.265,0.502c0.027,0.111 0.037,0.227 0.029,0.341c-0.027,0.427 -0.297,0.812 -0.689,0.982c-0.123,0.053 -0.255,0.085 -0.388,0.093c-0.153,0.009 -0.307,-0.012 -0.452,-0.063c-0.164,-0.058 -0.307,-0.153 -0.433,-0.273c-2.276,-2.399 -4.433,-4.909 -6.649,-7.365c-0.113,-0.131 -0.201,-0.279 -0.25,-0.446c-0.032,-0.11 -0.048,-0.225 -0.046,-0.34c0.005,-0.387 0.211,-0.753 0.539,-0.959c0.148,-0.092 0.311,-0.144 0.483,-0.168c0.058,-0.005 0.114,-0.007 0.172,-0.006Zm30.349,0.254c0.171,0.01 0.335,0.048 0.488,0.127c0.355,0.184 0.594,0.55 0.619,0.95c0.007,0.113 -0.003,0.226 -0.028,0.336c-0.044,0.186 -0.135,0.351 -0.257,0.497c-2.248,2.425 -4.613,4.74 -6.92,7.11c-0.122,0.12 -0.261,0.216 -0.422,0.276c-0.141,0.052 -0.292,0.077 -0.443,0.071c-0.131,-0.004 -0.262,-0.032 -0.384,-0.081c-0.105,-0.041 -0.204,-0.099 -0.292,-0.169c-0.344,-0.275 -0.503,-0.735 -0.402,-1.163c0.044,-0.186 0.135,-0.351 0.257,-0.497c2.248,-2.425 4.612,-4.74 6.919,-7.11c0.054,-0.053 0.11,-0.103 0.173,-0.146c0.157,-0.108 0.335,-0.169 0.523,-0.195c0.057,-0.005 0.112,-0.007 0.169,-0.006Zm-15.239,-7.285c0.112,0.008 0.222,0.028 0.328,0.066c0.305,0.11 0.554,0.35 0.676,0.651c0.047,0.118 0.072,0.241 0.082,0.367c0.048,1.311 0.073,2.623 0.074,3.935c-0.006,0.169 -0.043,0.333 -0.117,0.486c-0.068,0.138 -0.164,0.262 -0.281,0.363c-0.106,0.092 -0.229,0.164 -0.36,0.212c-0.106,0.038 -0.216,0.06 -0.328,0.067c-0.426,0.023 -0.84,-0.199 -1.056,-0.567c-0.093,-0.159 -0.143,-0.335 -0.156,-0.518c-0.049,-1.311 -0.074,-2.623 -0.074,-3.935c0.004,-0.126 0.025,-0.25 0.068,-0.37c0.115,-0.318 0.371,-0.575 0.69,-0.69c0.119,-0.044 0.243,-0.064 0.37,-0.069c0.042,0 0.042,0 0.084,0.002Z"/></svg>