<?xml version="1.0" encoding="UTF-8" standalone="no"?><!DOCTYPE svg PUBLIC "-//W3C//DTD SVG 1.1//EN" "http://www.w3.org/Graphics/SVG/1.1/DTD/svg11.dtd"><svg width="100%" height="100%" viewBox="0 0 71 66" version="1.1" xmlns="http://www.w3.org/2000/svg" xmlns:xlink="http://www.w3.org/1999/xlink" xml:space="preserve" style="fill-rule:evenodd;clip-rule:evenodd;stroke-linejoin:round;stroke-miterlimit:1.41421;"><rect id="Artboard2" x="0" y="0" width="71" height="66" style="fill:none;"/><path d="M23.056,17.057c-1.125,-1.238 -1.743,-2.813 -1.743,-4.5c0,-1.8 0.675,-3.488 1.968,-4.782c1.294,-1.293 2.982,-1.968 4.782,-1.968c1.8,0 3.543,0.675 4.781,1.968c0.956,0.957 1.912,2.419 2.587,4.107c0.675,-1.688 1.632,-3.15 2.588,-4.107c2.587,-2.643 6.862,-2.643 9.506,0c2.588,2.532 2.644,6.638 0.225,9.282l10.125,0c3.094,0 5.625,2.531 5.625,5.625l0,4.5c0,1.462 -0.9,2.7 -2.25,3.206l0,23.794c0,3.093 -2.531,5.625 -5.625,5.625l-37.687,0c-2.925,0 -6.188,-2.419 -6.188,-5.625l0,-23.794c-1.294,-0.506 -2.25,-1.744 -2.25,-3.206l0,-4.5c0,-3.094 2.531,-5.625 5.625,-5.625l7.931,0Zm37.238,11.306c0,-0.056 0.056,-0.056 0.056,-0.056c0.45,-0.113 0.9,-0.507 0.9,-1.125l0,-4.5c0,-1.857 -1.519,-3.375 -3.375,-3.375l-42.75,0c-1.856,0 -3.375,1.518 -3.375,3.375l0,4.5c0,0.618 0.506,1.125 1.125,1.125l21.375,0l0,-5.063c0,-0.619 0.506,-1.125 1.125,-1.125c0.619,0 1.125,0.506 1.125,1.125l0,5.063l11.25,0c0.619,0 1.125,0.506 1.125,1.125c0,0.618 -0.506,1.125 -1.125,1.125l-11.25,0l0,27.056l19.125,0c1.856,0 3.375,-1.519 3.375,-3.375l0,-24.75c0,-0.619 0.506,-1.125 1.125,-1.125l0.169,0Zm-26.044,29.194l0,-27l-20.25,0l0,23.625c0,1.856 2.138,3.375 3.938,3.375l16.312,0Zm20.25,-29.25c0.619,0 1.125,0.506 1.125,1.125c0,0.618 -0.506,1.125 -1.125,1.125l-1.687,0c-0.619,0 -1.125,-0.507 -1.125,-1.125c0,-0.619 0.506,-1.125 1.125,-1.125l1.687,0Zm-10.35,-11.194c0.113,-0.113 0.169,-0.169 0.281,-0.225c0.507,-0.338 1.069,-0.731 1.519,-1.181c1.744,-1.744 1.744,-4.613 0,-6.357c-1.744,-1.743 -4.612,-1.743 -6.356,0c-1.406,1.407 -2.981,4.782 -2.925,7.2c0,0.169 -0.056,0.394 -0.169,0.563l7.65,0Zm-9.844,-0.169c-0.112,-0.169 -0.168,-0.337 -0.168,-0.562c0.056,-2.307 -1.519,-5.682 -2.925,-7.088c-0.844,-0.844 -1.969,-1.294 -3.15,-1.294c-1.182,0 -2.307,0.45 -3.15,1.294c-1.744,1.744 -1.744,4.613 0,6.356c0.393,0.45 0.9,0.844 1.462,1.125c0.169,0.113 0.281,0.169 0.338,0.169l7.593,0Z"/></svg>