<?xml version="1.0" encoding="UTF-8" standalone="no"?><!DOCTYPE svg PUBLIC "-//W3C//DTD SVG 1.1//EN" "http://www.w3.org/Graphics/SVG/1.1/DTD/svg11.dtd"><svg width="100%" height="100%" viewBox="0 0 71 67" version="1.1" xmlns="http://www.w3.org/2000/svg" xmlns:xlink="http://www.w3.org/1999/xlink" xml:space="preserve" style="fill-rule:evenodd;clip-rule:evenodd;stroke-linejoin:round;stroke-miterlimit:1.41421;"><rect id="Artboard6" x="0" y="0.602" width="71" height="66" style="fill:none;"/><path d="M45.207,26.747c0,0.575 -0.471,1.046 -1.046,1.046c-0.575,0 -1.046,-0.471 -1.046,-1.046l0,-9.413c0,-1.725 -1.412,-3.137 -3.138,-3.137l-25.1,0c-1.725,0 -3.137,1.412 -3.137,3.137l0,33.467c0,1.726 1.412,3.137 3.137,3.137l25.1,0c1.726,0 3.138,-1.411 3.138,-3.137l0,-8.367c0,-0.575 0.471,-1.045 1.046,-1.045c0.575,0 1.046,0.47 1.046,1.045l0,8.367c0,2.876 -2.354,5.229 -5.23,5.229l-25.1,0c-2.876,0 -5.229,-2.353 -5.229,-5.229l0,-33.467c0,-2.876 2.353,-5.229 5.229,-5.229l25.1,0c2.876,0 5.23,2.353 5.23,5.229l0,9.413Zm-14.119,7.321c0,-0.576 -0.471,-1.046 -1.046,-1.046l-1.569,0c-0.575,0 -1.046,0.47 -1.046,1.046c0,0.575 0.471,1.046 1.046,1.046l1.569,0c0.575,0 1.046,-0.471 1.046,-1.046Zm21.23,-8.524l7.478,7.478l-25.048,0c-0.575,0 -1.046,0.47 -1.046,1.046c0,0.575 0.471,1.046 1.046,1.046l25.048,0l-7.478,7.477c-0.209,0.209 -0.314,0.471 -0.314,0.732c0,0.262 0.105,0.523 0.314,0.732c0.419,0.419 1.046,0.419 1.464,0l9.256,-9.255c0.418,-0.419 0.418,-1.046 0,-1.464l-9.256,-9.256c-0.418,-0.418 -1.045,-0.418 -1.464,0c-0.418,0.418 -0.418,1.046 0,1.464Z"/></svg>