<?xml version="1.0" encoding="UTF-8" standalone="no"?><!DOCTYPE svg PUBLIC "-//W3C//DTD SVG 1.1//EN" "http://www.w3.org/Graphics/SVG/1.1/DTD/svg11.dtd"><svg width="100%" height="100%" viewBox="0 0 71 67" version="1.1" xmlns="http://www.w3.org/2000/svg" xmlns:xlink="http://www.w3.org/1999/xlink" xml:space="preserve" style="fill-rule:evenodd;clip-rule:evenodd;stroke-linejoin:round;stroke-miterlimit:1.41421;"><rect id="Artboard6" x="0" y="0.602" width="71" height="66" style="fill:none;"/><path d="M32.804,58.712c-1.421,0.569 -2.984,0 -3.624,-1.35l-3.126,-5.755l-6.892,-1.421c-1.208,-0.497 -1.99,-1.705 -1.848,-2.984l0.924,-6.608l-4.476,-4.832c-0.995,-1.208 -0.924,-2.913 0.071,-3.908l4.476,-4.69l-0.782,-6.537c-0.142,-1.563 0.853,-2.913 2.345,-3.197l6.466,-1.137l3.198,-5.755c0.355,-0.64 0.923,-1.137 1.634,-1.35c0.71,-0.214 1.492,-0.143 2.131,0.213l6.962,3.447l19.097,26.885l1.084,7.824c0.067,1.202 -0.494,2.279 -1.447,2.817l-4.668,1.036l-2.624,0.481l-3.198,5.756c-0.497,0.923 -1.492,1.421 -2.487,1.421c-0.426,0 -0.852,-0.071 -1.279,-0.285l-5.826,-2.842l-0.301,0.129l-0.007,-0.004l-2.781,1.248l-0.294,0.167l-2.657,1.231l-0.071,0Zm16.04,-15.391c-2.479,2.675 -6.017,4.355 -9.929,4.355c-7.452,0 -13.548,-6.097 -13.548,-13.548c0,-5.51 3.503,-10.506 8.253,-12.617c0,0 -1.089,-1.487 0.176,-3.206l3.523,-3.691l-5.297,-2.584l-3.197,5.755c-0.426,0.782 -1.208,1.279 -1.989,1.421l-6.466,1.137c-0.071,0.071 -0.071,0.142 -0.071,0.142l0.781,6.466c0.142,0.853 -0.142,1.705 -0.781,2.345l-4.477,4.69l4.405,4.831c0.569,0.569 0.853,1.492 0.711,2.345l-0.924,6.537l6.537,1.208c0.853,0.071 1.563,0.639 1.99,1.35l3.126,5.897l0.071,0l5.898,-2.771c0.781,-0.426 1.776,-0.426 2.558,0l5.826,2.843l3.198,-5.756c0.426,-0.781 1.208,-1.279 1.989,-1.421l6.395,-1.066l-0.653,-5.459l-1.608,0.722l-0.288,0.164l-2.603,1.206l-0.069,0c-1.383,0.552 -2.902,0.007 -3.537,-1.295Zm-9.534,-26.663l-3.565,3.735l4.316,4.733c0.556,0.557 0.835,1.462 0.696,2.297l-0.905,6.404l6.404,1.183c0.835,0.07 1.531,0.626 1.948,1.322l3.063,5.778l0.07,0l4.581,-2.153c-3.029,-4.589 -12.845,-18.356 -16.608,-23.299Z"/></svg>