<?xml version="1.0" encoding="UTF-8" standalone="no"?><!DOCTYPE svg PUBLIC "-//W3C//DTD SVG 1.1//EN" "http://www.w3.org/Graphics/SVG/1.1/DTD/svg11.dtd"><svg width="100%" height="100%" viewBox="0 0 71 66" version="1.1" xmlns="http://www.w3.org/2000/svg" xmlns:xlink="http://www.w3.org/1999/xlink" xml:space="preserve" style="fill-rule:evenodd;clip-rule:evenodd;stroke-linejoin:round;stroke-miterlimit:1.41421;"><rect id="Artboard8" x="0" y="0" width="71" height="66" style="fill:none;"/><path d="M36.009,25.717c1,0.013 1.995,0.127 2.969,0.352c1.571,0.363 3.07,1.001 4.443,1.844c1.118,0.685 2.151,1.504 3.096,2.411c0.952,0.914 1.814,1.919 2.594,2.983c0.404,0.552 0.777,1.123 1.152,1.694l0.026,0.049c0.005,0.017 0.012,0.035 0.015,0.052c0.011,0.054 0.005,0.111 -0.016,0.162c-0.006,0.017 -0.016,0.032 -0.025,0.049c-0.206,0.314 -0.412,0.629 -0.62,0.943c-0.256,0.379 -0.518,0.753 -0.792,1.119c-0.703,0.94 -1.472,1.83 -2.311,2.65c-1.874,1.831 -4.118,3.309 -6.629,4.095c-0.774,0.242 -1.568,0.415 -2.373,0.522c-0.116,0.024 -0.233,0.045 -0.35,0.064c-0.371,0.056 -0.746,0.09 -1.122,0.089c-0.213,0 -0.426,-0.014 -0.639,-0.033l-0.104,-0.01l-0.092,-0.011c-0.157,-0.007 -0.314,-0.016 -0.471,-0.027c-0.882,-0.069 -1.755,-0.216 -2.609,-0.448c-0.587,-0.16 -1.163,-0.357 -1.724,-0.59c-0.496,-0.204 -0.98,-0.436 -1.451,-0.692c-1.941,-1.053 -3.646,-2.505 -5.1,-4.161c-0.774,-0.881 -1.475,-1.821 -2.12,-2.8l-0.359,-0.547c-0.008,-0.016 -0.018,-0.032 -0.025,-0.049c-0.028,-0.068 -0.028,-0.146 0,-0.214c0.007,-0.017 0.017,-0.032 0.025,-0.049c0.213,-0.324 0.424,-0.649 0.639,-0.972c0.647,-0.957 1.348,-1.876 2.121,-2.736c1.513,-1.685 3.295,-3.149 5.321,-4.176c0.492,-0.25 0.997,-0.473 1.513,-0.667c0.626,-0.235 1.267,-0.427 1.92,-0.571c0.895,-0.199 1.805,-0.303 2.721,-0.324c0.126,-0.001 0.252,-0.002 0.377,-0.001Zm4.187,3.429c0.384,0.275 0.743,0.587 1.069,0.929c0.625,0.656 1.13,1.423 1.484,2.257c0.303,0.716 0.492,1.478 0.561,2.252c0.073,0.822 0.011,1.655 -0.184,2.456c-0.196,0.802 -0.525,1.569 -0.971,2.263c-0.513,0.8 -1.177,1.497 -1.946,2.051c0.937,-0.407 1.82,-0.934 2.641,-1.542l0.011,-0.018c0.03,-0.038 0.03,-0.038 0.066,-0.07c0.153,-0.112 0.152,-0.112 0.303,-0.226c0.725,-0.561 1.404,-1.175 2.034,-1.84c0.731,-0.772 1.391,-1.605 2.002,-2.475l0.015,-0.021c-0.304,-0.433 -0.624,-0.855 -0.959,-1.264c-1.564,-1.912 -3.488,-3.578 -5.756,-4.593c-0.123,-0.055 -0.246,-0.108 -0.37,-0.159Zm-8.871,0.104c-1.872,0.815 -3.525,2.082 -4.925,3.56c-0.484,0.512 -0.942,1.05 -1.37,1.61c-0.21,0.275 -0.413,0.555 -0.613,0.838l-0.039,0.056c1.099,1.556 2.391,2.989 3.903,4.154c0.371,0.285 0.754,0.554 1.15,0.804c0.194,0.122 0.392,0.237 0.59,0.352c0.279,0.162 0.56,0.318 0.851,0.459c0.181,0.089 0.365,0.172 0.55,0.251c-0.271,-0.197 -0.53,-0.412 -0.773,-0.644c-0.654,-0.624 -1.194,-1.365 -1.587,-2.179c-0.335,-0.695 -0.561,-1.442 -0.669,-2.207c-0.11,-0.787 -0.095,-1.593 0.045,-2.376c0.119,-0.667 0.33,-1.318 0.624,-1.928c0.522,-1.083 1.306,-2.029 2.263,-2.75Zm4.438,0.851c-0.729,0.014 -1.448,0.172 -2.109,0.481c-0.582,0.272 -1.112,0.653 -1.555,1.118c-0.429,0.45 -0.776,0.978 -1.019,1.55c-0.207,0.491 -0.337,1.013 -0.384,1.543c-0.054,0.607 -0.001,1.224 0.158,1.812c0.201,0.745 0.574,1.44 1.079,2.023c0.516,0.595 1.167,1.07 1.892,1.378c0.613,0.259 1.274,0.395 1.938,0.404c0.668,0.008 1.335,-0.112 1.956,-0.357c0.598,-0.236 1.151,-0.586 1.621,-1.024c0.455,-0.423 0.833,-0.928 1.109,-1.484c0.235,-0.473 0.397,-0.982 0.476,-1.503c0.086,-0.563 0.079,-1.139 -0.021,-1.7c-0.085,-0.477 -0.239,-0.942 -0.455,-1.376c-0.498,-1.004 -1.327,-1.831 -2.33,-2.33c-0.651,-0.324 -1.363,-0.499 -2.089,-0.531c-0.089,-0.003 -0.178,-0.004 -0.267,-0.004Z"/></svg>